<svg width="20" height="20" viewBox="0 0 20 20" fill="none" xmlns="http://www.w3.org/2000/svg">
<g clip-path="url(#clip0_341_1707)">
<path d="M18.187 0H1.81305C0.811719 0 0 0.811719 0 1.81305V18.187C0 19.1883 0.811719 20 1.81305 20H18.187C19.1883 20 20 19.1883 20 18.187V1.81305C20 0.811719 19.1883 0 18.187 0Z" fill="#DC395F"/>
<path d="M6.68392 6.29345C7.34876 6.29345 7.90572 5.77235 7.90572 5.08938C7.90572 4.40688 7.34876 3.88586 6.68392 3.88586C6.01908 3.88586 5.46228 4.40688 5.46228 5.08938C5.46228 5.77227 6.01908 6.29345 6.68392 6.29345ZM4.15064 12.7403C4.07884 13.0458 4.04283 13.3756 4.04283 13.6447C4.04283 14.7049 4.61775 15.4088 5.83954 15.4088C6.85283 15.4088 7.67431 14.8071 8.26579 13.8354L7.90462 15.2849H9.91673L11.0667 10.6724C11.3542 9.50462 11.9112 8.89845 12.7557 8.89845C13.4205 8.89845 13.8337 9.31189 13.8337 9.99439C13.8337 10.1921 13.8157 10.4075 13.7438 10.6412L13.1509 12.7613C13.061 13.0667 13.0252 13.3724 13.0252 13.6596C13.0252 14.6661 13.618 15.4023 14.8577 15.4023C15.9178 15.4023 16.7622 14.7199 17.2294 13.0848L16.4389 12.7796C16.0436 13.875 15.7022 14.0731 15.4327 14.0731C15.1631 14.0731 15.0194 13.8935 15.0194 13.5344C15.0194 13.3727 15.0555 13.1932 15.1092 12.9771L15.6843 10.9117C15.828 10.4267 15.882 9.99658 15.882 9.60142C15.882 8.05626 14.9476 7.24985 13.8157 7.24985C12.7557 7.24985 11.6776 8.20603 11.1387 9.21236L11.5338 7.4061H8.46165L8.0304 8.99704H9.46783L8.58267 12.5408C7.88759 14.086 6.61079 14.111 6.45056 14.0752C6.18743 14.0158 6.01915 13.9159 6.01915 13.574C6.01915 13.3767 6.05509 13.0934 6.14493 12.7517L7.49259 7.4061H4.07884L3.64759 8.99704H5.06689L4.15072 12.7403" fill="white"/>
</g>
<defs>
<clipPath id="clip0_341_1707">
<rect width="20" height="20" fill="white"/>
</clipPath>
</defs>
</svg>
