<svg width="20" height="20" viewBox="0 0 20 20" fill="none" xmlns="http://www.w3.org/2000/svg">
<g clip-path="url(#clip0_704_6509)">
<path d="M6.68539 3.75303V13.7381C6.04971 13.1596 5.20544 12.8067 4.28045 12.8067C2.30794 12.8067 0.70317 14.4115 0.70317 16.384C0.70317 18.3565 2.30794 19.9613 4.28045 19.9613C6.25051 19.9613 7.85345 18.3605 7.85757 16.3915H7.85772V9.25643L18.1309 6.16927V11.3315C17.4952 10.7532 16.6509 10.4001 15.7259 10.4001C13.7534 10.4001 12.1487 12.0048 12.1487 13.9774C12.1487 15.9499 13.7534 17.5546 15.7259 17.5546C17.6917 17.5546 19.2921 15.9607 19.3029 13.9973H19.3032V-0.0387819L6.68539 3.75303Z" fill="#6B7AED"/>
</g>
<defs>
<clipPath id="clip0_704_6509">
<rect width="19.6411" height="19.6411" fill="white" transform="scale(1.01827)"/>
</clipPath>
</defs>
</svg>
