<svg width="97" height="97" viewBox="0 0 97 97" fill="none" xmlns="http://www.w3.org/2000/svg">
<rect x="0.5" y="0.5" width="96" height="96" rx="14.5" stroke="#E2E8F0"/>
<path d="M55.7922 39.1681C52.6348 39.1681 51.3005 40.6747 49.1016 40.6747C46.8471 40.6747 45.1275 39.1791 42.3915 39.1791C39.7133 39.1791 36.8575 40.8141 35.0439 43.5995C32.4973 47.5274 32.9296 54.9251 37.054 61.2273C38.5293 63.4833 40.4996 66.0134 43.0837 66.0408H43.1307C45.3765 66.0408 46.0437 64.5702 49.1345 64.553H49.1815C52.2261 64.553 52.8369 66.0322 55.0733 66.0322H55.1203C57.7044 66.0048 59.7804 63.2014 61.2557 60.954C62.3175 59.3377 62.7122 58.5264 63.5266 56.698C57.5604 54.4333 56.6019 45.9753 62.5023 42.7326C60.7013 40.4774 58.1704 39.1712 55.7844 39.1712L55.7922 39.1681Z" fill="#2D3748"/>
<path d="M55.097 30.9611C53.2176 31.0888 51.025 32.2853 49.7408 33.8475C48.5756 35.2633 47.6171 37.3635 47.993 39.4003H48.1433C50.1449 39.4003 52.1934 38.1951 53.3899 36.6509C54.5426 35.1811 55.4165 33.0981 55.097 30.9611Z" fill="#2D3748"/>
</svg>
