<svg width="18" height="18" viewBox="0 0 18 18" fill="none" xmlns="http://www.w3.org/2000/svg">
<g clip-path="url(#clip0_704_6822)">
<path d="M6.01685 3.35036V12.2636C5.44473 11.7473 4.68489 11.4322 3.8524 11.4322C2.07714 11.4322 0.632847 12.8647 0.632847 14.6255C0.632847 16.3863 2.07714 17.8188 3.8524 17.8188C5.62546 17.8188 7.0681 16.3898 7.07181 14.6322H7.07195V8.26303L16.3178 5.50724V10.1153C15.7457 9.59911 14.9858 9.28392 14.1533 9.28392C12.3781 9.28392 10.9338 10.7164 10.9338 12.4772C10.9338 14.238 12.3781 15.6705 14.1533 15.6705C15.9226 15.6705 17.3629 14.2477 17.3726 12.4951H17.3729V-0.0344486L6.01685 3.35036Z" fill="white"/>
</g>
<defs>
<clipPath id="clip0_704_6822">
<rect width="17.8595" height="17.7139" fill="white" transform="scale(1.00787)"/>
</clipPath>
</defs>
</svg>
