<svg width="18" height="18" viewBox="0 0 18 18" fill="none" xmlns="http://www.w3.org/2000/svg">
<g clip-path="url(#clip0_704_6859)">
<path d="M12.3646 11.0902C14.0794 11.0601 14.4568 8.72032 12.8386 8.16308L10.9703 10.1728C11.2034 10.7173 11.7531 11.0902 12.3646 11.0902Z" fill="white"/>
<path d="M17.8979 8.05369C17.6577 6.62432 16.9825 5.52108 15.9342 4.83221C15.446 5.35788 14.1006 6.80447 13.5929 7.35086C14.4098 7.79 14.9327 8.64036 14.9327 9.58908C14.9384 11.7879 12.2632 12.9557 10.6329 11.4708C10.4775 11.812 10.2595 12.1259 9.98481 12.3983C8.89624 13.5688 5.52432 13.8518 4.08496 13.8102C4.0429 12.379 4.32937 9.03621 5.50853 7.95846C6.11019 7.36202 6.8951 7.05613 7.68529 7.04113C8.55002 6.24759 9.7492 5.14696 10.6104 4.35645C9.41417 4.66911 7.66197 5.49688 7.12755 4.71536C6.87745 4.12991 8.01448 2.76951 7.11735 1.62783C6.38213 0.712205 4.73666 0.884196 3.8068 1.5347C-0.720654 4.63511 -1.32604 11.447 2.62637 15.2364C7.46483 20.0723 15.9051 17.8815 17.7594 11.3282C17.8601 10.9157 18.1482 9.56362 17.8979 8.05369Z" fill="white"/>
<path d="M9.98524 7.95833C10.2792 8.24992 10.5082 8.5886 10.665 8.95728C11.2639 8.31399 14.4257 4.91153 14.9507 4.34725L17.758 1.32738C18.0647 0.997415 18.0728 0.509102 17.7767 0.215067C17.4799 -0.0789676 16.9868 -0.0705965 16.6542 0.2346L12.5485 4.00333C11.657 4.82136 9.88389 6.44954 8.97421 7.28445C9.34205 7.43723 9.68633 7.66185 9.98524 7.95833Z" fill="white"/>
<path d="M8.6761 8.29856C7.87512 7.91196 6.90446 8.05556 6.2549 8.69759C5.584 9.28593 5.20308 11.525 5.1644 12.7394C6.39233 12.6998 8.64438 12.3242 9.23911 11.6578C9.6379 11.2623 9.85734 10.7366 9.85734 10.1779C9.85723 9.61834 9.63755 9.09267 9.23911 8.69793V8.69759C9.07032 8.52981 8.87971 8.39692 8.6761 8.29856Z" fill="white"/>
</g>
<defs>
<clipPath id="clip0_704_6859">
<rect width="17.8595" height="17.7139" fill="white" transform="scale(1.00787)"/>
</clipPath>
</defs>
</svg>
