<svg width="37" height="36" viewBox="0 0 37 36" fill="none" xmlns="http://www.w3.org/2000/svg">
<path opacity="0.1" d="M35.7954 18C35.7954 27.6609 27.8983 35.4995 18.148 35.4995C8.39771 35.4995 0.500553 27.6609 0.500553 18C0.500553 8.33919 8.39771 0.500553 18.148 0.500553C27.8983 0.500553 35.7954 8.33919 35.7954 18Z" fill="white" stroke="white"/>
<path d="M25.0066 18.2071C25.0066 15.279 22.7376 12.9054 19.9386 12.9054C17.1396 12.9054 14.8706 15.279 14.8706 18.2071C14.8706 24.3925 12.3366 26.1597 12.3366 26.1597H27.5406C27.5406 26.1597 25.0066 24.3925 25.0066 18.2071" stroke="white" stroke-width="2" stroke-linecap="round" stroke-linejoin="round"/>
<path d="M21.3999 29.6941C21.0977 30.2391 20.5409 30.5745 19.9386 30.5745C19.3363 30.5745 18.7796 30.2391 18.4773 29.6941" stroke="white" stroke-width="2" stroke-linecap="round" stroke-linejoin="round"/>
<path d="M23.6932 15.0013C25.6304 15.0013 27.2149 13.4415 27.2149 11.5002C27.2149 9.55886 25.6304 7.99908 23.6932 7.99908C21.756 7.99908 20.1716 9.55886 20.1716 11.5002C20.1716 13.4415 21.756 15.0013 23.6932 15.0013Z" fill="#02E9FE" stroke="#524CE0" stroke-width="2"/>
</svg>
