<svg width="16" height="16" viewBox="0 0 16 16" fill="none" xmlns="http://www.w3.org/2000/svg">
<path d="M5.49988 13.9999C6.05216 13.9999 6.49988 13.5522 6.49988 12.9999C6.49988 12.4476 6.05216 11.9999 5.49988 11.9999C4.94759 11.9999 4.49988 12.4476 4.49988 12.9999C4.49988 13.5522 4.94759 13.9999 5.49988 13.9999Z" fill="#4299E1"/>
<path d="M12.4999 13.9999C13.0522 13.9999 13.4999 13.5522 13.4999 12.9999C13.4999 12.4476 13.0522 11.9999 12.4999 11.9999C11.9476 11.9999 11.4999 12.4476 11.4999 12.9999C11.4999 13.5522 11.9476 13.9999 12.4999 13.9999Z" fill="#4299E1"/>
<path d="M14.2749 3.7745C14.2046 3.68857 14.1161 3.61937 14.0158 3.57191C13.9155 3.52445 13.8059 3.49993 13.6949 3.50012H4.18394L3.99238 2.41325C3.97195 2.29747 3.91138 2.1926 3.82132 2.11705C3.73125 2.0415 3.61744 2.0001 3.49988 2.00012H1.49988C1.36727 2.00012 1.24009 2.0528 1.14632 2.14657C1.05256 2.24034 0.999878 2.36751 0.999878 2.50012C0.999878 2.63273 1.05256 2.75991 1.14632 2.85368C1.24009 2.94744 1.36727 3.00012 1.49988 3.00012H3.0805L4.50738 11.087C4.5278 11.2028 4.58837 11.3076 4.67844 11.3832C4.76851 11.4587 4.88232 11.5001 4.99988 11.5001H12.9999C13.1325 11.5001 13.2597 11.4474 13.3534 11.3537C13.4472 11.2599 13.4999 11.1327 13.4999 11.0001C13.4999 10.8675 13.4472 10.7403 13.3534 10.6466C13.2597 10.5528 13.1325 10.5001 12.9999 10.5001H5.41925L5.243 9.50012H12.7949C12.9683 9.4999 13.1363 9.43978 13.2704 9.32993C13.4046 9.22008 13.4967 9.06725 13.5311 8.89731L14.4311 4.39731C14.4528 4.2884 14.45 4.17604 14.423 4.06834C14.396 3.96063 14.3454 3.86027 14.2749 3.7745Z" fill="#4299E1"/>
</svg>
