<svg width="24" height="25" viewBox="0 0 24 25" fill="none" xmlns="http://www.w3.org/2000/svg">
<path fill-rule="evenodd" clip-rule="evenodd" d="M16.341 2.88391L16.342 3.66477C19.0849 3.88965 20.8968 5.84492 20.8997 8.84341L20.9105 17.6202C20.9145 20.8894 18.9512 22.9009 15.8042 22.9061L8.11715 22.9165C4.98984 22.9207 3.00197 20.8613 2.99804 17.5827L2.98722 8.909C2.98329 5.89073 4.73128 3.94067 7.47419 3.67726L7.47321 2.8964C7.47223 2.4383 7.79666 2.09368 8.22923 2.09368C8.6618 2.09264 8.98623 2.43622 8.98722 2.89432L8.9882 3.62312L14.8279 3.61479L14.827 2.88599C14.826 2.42789 15.1504 2.08431 15.583 2.08327C16.0057 2.08223 16.34 2.42581 16.341 2.88391ZM4.50223 9.23065L19.3867 9.20982V8.84542C19.3444 6.60697 18.2709 5.43256 16.3439 5.25765L16.3449 6.05933C16.3449 6.50702 16.0116 6.86205 15.5889 6.86205C15.1563 6.86309 14.8309 6.5091 14.8309 6.06141L14.8299 5.21809L8.99018 5.22642L8.99116 6.0687C8.99116 6.51743 8.66772 6.87142 8.23514 6.87142C7.80257 6.87246 7.47716 6.51951 7.47716 6.07078L7.47617 5.2691C5.55909 5.47004 4.4983 6.64862 4.50125 8.90685L4.50223 9.23065ZM15.1751 13.9626V13.9741C15.1849 14.453 15.5585 14.8163 16.0117 14.8059C16.4541 14.7945 16.807 14.3978 16.7972 13.9189C16.7766 13.4608 16.4217 13.087 15.9802 13.088C15.528 13.0985 15.1741 13.4837 15.1751 13.9626ZM15.987 18.6373C15.5348 18.6269 15.17 18.2323 15.1691 17.7534C15.1592 17.2745 15.522 16.8778 15.9742 16.8664H15.9841C16.4461 16.8664 16.8207 17.261 16.8207 17.7503C16.8217 18.2396 16.4481 18.6363 15.987 18.6373ZM11.1245 13.9794C11.1442 14.4583 11.5187 14.8321 11.971 14.8113C12.4134 14.7894 12.7663 14.3938 12.7467 13.9148C12.7359 13.4463 12.3721 13.0819 11.9297 13.083C11.4775 13.1038 11.1235 13.5005 11.1245 13.9794ZM11.975 18.5906C11.5228 18.6114 11.1492 18.2376 11.1285 17.7587C11.1285 17.2798 11.4815 16.8842 11.9337 16.8623C12.3761 16.8613 12.7408 17.2257 12.7507 17.6931C12.7713 18.1731 12.4174 18.5687 11.975 18.5906ZM7.0741 14.0158C7.09376 14.4947 7.46833 14.8695 7.92057 14.8476C8.36297 14.8268 8.71591 14.4301 8.69526 13.9512C8.68543 13.4827 8.32168 13.1183 7.87829 13.1193C7.42605 13.1402 7.07311 13.5368 7.0741 14.0158ZM7.92446 18.5957C7.47222 18.6175 7.09863 18.2427 7.07799 17.7638C7.077 17.2849 7.43093 16.8882 7.88316 16.8674C8.32557 16.8663 8.69031 17.2307 8.70014 17.6992C8.72078 18.1782 8.36784 18.5748 7.92446 18.5957Z" fill="#2C3550"/>
</svg>
