<svg width="68" height="68" viewBox="0 0 68 68" fill="none" xmlns="http://www.w3.org/2000/svg">
<path d="M35.0625 59.5C35.0625 59.5 55.25 40.6207 55.25 26.2969C55.25 21.0133 53.1231 15.9461 49.3372 12.21C45.5513 8.47391 40.4166 6.375 35.0625 6.375C29.7084 6.375 24.5737 8.47391 20.7878 12.21C17.0019 15.9461 14.875 21.0133 14.875 26.2969C14.875 40.6207 35.0625 59.5 35.0625 59.5ZM35.0625 36.2578C32.3855 36.2578 29.8181 35.2084 27.9251 33.3403C26.0322 31.4723 24.9688 28.9387 24.9688 26.2969C24.9688 23.6551 26.0322 21.1215 27.9251 19.2534C29.8181 17.3854 32.3855 16.3359 35.0625 16.3359C37.7395 16.3359 40.3069 17.3854 42.1999 19.2534C44.0928 21.1215 45.1562 23.6551 45.1562 26.2969C45.1562 28.9387 44.0928 31.4723 42.1999 33.3403C40.3069 35.2084 37.7395 36.2578 35.0625 36.2578Z" fill="white"/>
</svg>
