<svg width="15" height="15" viewBox="0 0 15 15" fill="none" xmlns="http://www.w3.org/2000/svg">
<path d="M7.50008 1.40601C4.14002 1.40601 1.40633 4.1397 1.40633 7.49975C1.40633 10.8598 4.14002 13.5935 7.50008 13.5935C10.8601 13.5935 13.5938 10.8598 13.5938 7.49975C13.5938 4.1397 10.8601 1.40601 7.50008 1.40601ZM10.6715 5.45747L6.73396 10.145C6.69077 10.1964 6.63703 10.238 6.57637 10.2668C6.51571 10.2957 6.44956 10.3112 6.3824 10.3123H6.37449C6.30879 10.3122 6.24382 10.2984 6.18381 10.2716C6.1238 10.2449 6.07009 10.2058 6.02615 10.157L4.33865 8.28198C4.29579 8.23653 4.26246 8.18296 4.2406 8.12444C4.21874 8.06592 4.20879 8.00361 4.21136 7.94119C4.21392 7.87877 4.22893 7.8175 4.25552 7.76096C4.2821 7.70443 4.31971 7.65377 4.36615 7.61198C4.41259 7.57019 4.46691 7.53811 4.52593 7.51761C4.58494 7.49712 4.64746 7.48862 4.7098 7.49263C4.77215 7.49664 4.83306 7.51308 4.88896 7.54096C4.94486 7.56885 4.99463 7.60763 5.03533 7.65503L6.36219 9.12925L9.95369 4.85454C10.0342 4.7614 10.1482 4.7037 10.271 4.69392C10.3937 4.68414 10.5154 4.72306 10.6097 4.80226C10.704 4.88147 10.7633 4.99461 10.7749 5.11721C10.7865 5.23981 10.7493 5.36204 10.6715 5.45747Z" fill="#68D391"/>
</svg>
