<svg width="16" height="11" viewBox="0 0 16 11" fill="none" xmlns="http://www.w3.org/2000/svg">
<path fill-rule="evenodd" clip-rule="evenodd" d="M7.70959 2.28449C9.94667 2.28459 12.0982 3.1387 13.7195 4.6703C13.8416 4.78855 14.0367 4.78706 14.157 4.66696L15.324 3.49662C15.3849 3.43571 15.4188 3.3532 15.4183 3.26735C15.4178 3.1815 15.3829 3.09939 15.3213 3.03919C11.0659 -1.01306 4.35258 -1.01306 0.0971926 3.03919C0.0355505 3.09935 0.000575433 3.18143 7.03775e-06 3.26728C-0.000561387 3.35313 0.0333237 3.43567 0.094164 3.49662L1.26155 4.66696C1.38172 4.78724 1.57701 4.78873 1.69902 4.6703C3.32053 3.1386 5.4723 2.28448 7.70959 2.28449ZM7.70958 6.09209C8.9387 6.09202 10.124 6.54597 11.035 7.36575C11.1583 7.4821 11.3524 7.47958 11.4725 7.36007L12.6382 6.18973C12.6996 6.12835 12.7337 6.04507 12.7328 5.95853C12.7319 5.872 12.6961 5.78942 12.6335 5.72929C9.85905 3.16487 5.56246 3.16487 2.78801 5.72929C2.72534 5.78942 2.68958 5.87204 2.68876 5.9586C2.68794 6.04516 2.72212 6.12843 2.78364 6.18973L3.949 7.36007C4.06912 7.47958 4.26324 7.4821 4.38647 7.36575C5.29696 6.54652 6.48127 6.0926 7.70958 6.09209ZM10.0447 8.65394C10.0464 8.74072 10.0121 8.82439 9.94977 8.88518L7.93335 10.9072C7.87424 10.9666 7.79365 11.0001 7.70957 11.0001C7.62548 11.0001 7.54489 10.9666 7.48578 10.9072L5.46903 8.88518C5.40673 8.82434 5.37246 8.74065 5.3743 8.65387C5.37615 8.56709 5.41396 8.48492 5.47879 8.42675C6.76655 7.34447 8.65259 7.34447 9.94034 8.42675C10.0051 8.48496 10.0429 8.56717 10.0447 8.65394Z" fill="black"/>
</svg>
