<svg width="25" height="21" viewBox="0 0 25 21" fill="none" xmlns="http://www.w3.org/2000/svg">
<g opacity="0.94">
<path fill-rule="evenodd" clip-rule="evenodd" d="M2.76616e-06 1.30765C2.76616e-06 0.585455 0.585457 0 1.30765 0H23.6923C24.4145 0 25 0.585455 25 1.30765C25 2.02984 24.4145 2.6153 23.6923 2.6153H1.30765C0.585457 2.6153 2.76616e-06 2.02984 2.76616e-06 1.30765ZM0 10.461C0 9.73885 0.585454 9.15339 1.30765 9.15339H17.4423C18.1645 9.15339 18.75 9.73885 18.75 10.461C18.75 11.1832 18.1645 11.7687 17.4423 11.7687H1.30765C0.585454 11.7687 0 11.1832 0 10.461ZM1.30765 18.307C0.585454 18.307 0 18.8925 0 19.6147C0 20.3369 0.585454 20.9223 1.30765 20.9223H23.6923C24.4145 20.9223 25 20.3369 25 19.6147C25 18.8925 24.4145 18.307 23.6923 18.307H1.30765Z" fill="white"/>
</g>
</svg>
