<svg width="23" height="17" viewBox="0 0 23 17" fill="none" xmlns="http://www.w3.org/2000/svg">
<path fill-rule="evenodd" clip-rule="evenodd" d="M3.21094 4.29956C0.764404 6.64478 0 7.4873 0 8.5C0 9.51245 0.763916 10.3547 3.20752 12.6973C3.3335 12.8181 3.4624 12.9409 3.59399 13.0654C3.87866 13.335 4.17139 13.6089 4.46875 13.8845C4.89575 14.2798 5.33252 14.6787 5.76904 15.0728C6.02808 15.3066 6.2688 15.5222 6.48486 15.7146L6.62256 15.8369L6.75952 15.958C7.43774 16.5647 8.57983 17 9.50171 17H18.9985C20.9297 17 22.5 15.4336 22.5 13.5015V3.49854C22.5 1.56763 20.9314 0 18.9985 0H9.50171C8.57861 0 7.4458 0.43042 6.75952 1.04175L6.74731 1.05273C6.69922 1.09521 6.6106 1.17334 6.49121 1.27979C6.2749 1.47241 6.03394 1.68823 5.77466 1.92236C5.0332 2.5918 4.2915 3.27441 3.59741 3.9314L3.41895 4.10083L3.21094 4.29956ZM7.75098 14.8325C7.75098 14.8325 1.5 9.3269 1.5 8.5C1.5 7.6731 7.75757 2.16162 7.75757 2.16162C8.16748 1.79614 8.94482 1.5 9.50171 1.5H18.9985C20.104 1.5 21 2.39697 21 3.49854V13.5015C21 14.6052 20.1011 15.5 18.9985 15.5H9.50171C8.94849 15.5 8.16235 15.2004 7.75098 14.8325Z" fill="black"/>
<path d="M10.5303 6.09112C10.2374 5.79823 10.2374 5.32335 10.5303 5.03046C10.8232 4.73757 11.2981 4.73757 11.591 5.03046L17.6014 11.0409C17.8943 11.3338 17.8943 11.8086 17.6014 12.1015C17.3085 12.3944 16.8336 12.3944 16.5407 12.1015L10.5303 6.09112Z" fill="black"/>
<path d="M16.541 5.03033C16.8339 4.73744 17.3087 4.73744 17.6016 5.03033C17.8945 5.32322 17.8945 5.7981 17.6016 6.09099L11.5912 12.1014C11.2983 12.3943 10.8234 12.3943 10.5306 12.1014C10.2377 11.8085 10.2377 11.3336 10.5306 11.0407L16.541 5.03033Z" fill="black"/>
</svg>
