<svg width="24" height="24" viewBox="0 0 24 24" fill="none" xmlns="http://www.w3.org/2000/svg">
<path d="M12 2.23162C6.62391 2.23162 2.25001 6.56986 2.25001 11.9021C2.25001 17.2344 6.62391 21.5726 12 21.5726C17.3761 21.5726 21.75 17.2344 21.75 11.9021C21.75 6.56986 17.3761 2.23162 12 2.23162ZM13.5 16.3654H10.5C10.3011 16.3654 10.1103 16.287 9.96968 16.1475C9.82903 16.008 9.75001 15.8188 9.75001 15.6215C9.75001 15.4242 9.82903 15.235 9.96968 15.0955C10.1103 14.956 10.3011 14.8777 10.5 14.8777H13.5C13.6989 14.8777 13.8897 14.956 14.0303 15.0955C14.171 15.235 14.25 15.4242 14.25 15.6215C14.25 15.8188 14.171 16.008 14.0303 16.1475C13.8897 16.287 13.6989 16.3654 13.5 16.3654ZM15.75 13.3899H8.25001C8.0511 13.3899 7.86033 13.3115 7.71968 13.172C7.57903 13.0325 7.50001 12.8433 7.50001 12.646C7.50001 12.4487 7.57903 12.2595 7.71968 12.12C7.86033 11.9805 8.0511 11.9021 8.25001 11.9021H15.75C15.9489 11.9021 16.1397 11.9805 16.2803 12.12C16.421 12.2595 16.5 12.4487 16.5 12.646C16.5 12.8433 16.421 13.0325 16.2803 13.172C16.1397 13.3115 15.9489 13.3899 15.75 13.3899ZM17.25 10.4143H6.75001C6.5511 10.4143 6.36033 10.336 6.21968 10.1965C6.07903 10.057 6.00001 9.86775 6.00001 9.67046C6.00001 9.47317 6.07903 9.28396 6.21968 9.14446C6.36033 9.00495 6.5511 8.92658 6.75001 8.92658H17.25C17.4489 8.92658 17.6397 9.00495 17.7803 9.14446C17.921 9.28396 18 9.47317 18 9.67046C18 9.86775 17.921 10.057 17.7803 10.1965C17.6397 10.336 17.4489 10.4143 17.25 10.4143Z" fill="#A29EF0"/>
</svg>
