<svg width="18" height="18" viewBox="0 0 18 18" fill="none" xmlns="http://www.w3.org/2000/svg">
<g clip-path="url(#clip0_704_6829)">
<path d="M8.43641 2.38979C8.31896 1.62266 8.08144 0.846114 7.73547 0.0873518C5.93884 0.337925 4.31265 1.11444 3.02006 2.25516L7.48561 6.68433C8.35809 5.58381 8.6953 4.08065 8.43641 2.38979Z" fill="white"/>
<path d="M7.4903 8.16727C6.4238 9.04068 5.05165 9.49698 3.51001 9.49702C3.10157 9.49702 2.68138 9.46501 2.2517 9.40033C1.50104 9.28724 0.744377 9.07513 0.00180616 8.7725C0.000997571 8.82323 -9.2273e-05 8.87393 -9.2273e-05 8.92488C-9.2273e-05 11.2017 0.859795 13.279 2.27438 14.8559L8.25414 8.92488L7.4903 8.16727Z" fill="white"/>
<path d="M6.74 7.42247L2.27441 2.99334C1.12431 4.27539 0.341415 5.88828 0.088782 7.67025C0.853817 8.01341 1.63678 8.24906 2.41012 8.36555C4.11498 8.62237 5.63046 8.28783 6.74 7.42247Z" fill="white"/>
<path d="M15.5898 9.48408C13.885 9.22723 12.3695 9.56177 11.2599 10.4271L15.7255 14.8563C16.8756 13.5742 17.6585 11.9613 17.9111 10.1793C17.1462 9.83623 16.3632 9.60062 15.5898 9.48408Z" fill="white"/>
<path d="M9.76349 10.423L8.99983 9.66553L3.02006 15.5965C4.60994 16.9996 6.7043 17.8525 8.99983 17.8525C9.05119 17.8525 9.10231 17.8514 9.15346 17.8505C8.84837 17.114 8.63448 16.3635 8.52047 15.619C8.20899 13.5843 8.6496 11.761 9.76349 10.423Z" fill="white"/>
<path d="M8.23619 7.42801L8.99986 8.18545L14.9796 2.25445C13.3898 0.851364 11.2954 -0.00147637 8.99986 -0.00147637C8.9485 -0.00147637 8.89738 -0.000395411 8.84623 0.00044146C9.15131 0.736922 9.3652 1.48735 9.47922 2.23199C9.7907 4.26667 9.35009 6.09 8.23619 7.42801Z" fill="white"/>
<path d="M9.56304 15.4613C9.68047 16.2283 9.91809 17.0049 10.264 17.7637C12.0606 17.5132 13.6868 16.7366 14.9794 15.5959L10.5138 11.1668C9.64137 12.2673 9.30415 13.7704 9.56304 15.4613Z" fill="white"/>
<path d="M10.5096 9.68181C11.8586 8.57697 13.6969 8.13998 15.7483 8.44893C16.4991 8.56201 17.2557 8.77419 17.9982 9.07675C17.999 9.02602 18.0001 8.97532 18.0001 8.92434C18.0001 6.64753 17.1402 4.57024 15.7257 2.99334L9.7459 8.92437L10.5096 9.68181Z" fill="white"/>
</g>
<defs>
<clipPath id="clip0_704_6829">
<rect width="17.8595" height="17.7139" fill="white" transform="scale(1.00787)"/>
</clipPath>
</defs>
</svg>
