<svg width="171" height="171" viewBox="0 0 171 171" fill="none" xmlns="http://www.w3.org/2000/svg">
<g filter="url(#filter0_d_704_6480)">
<rect x="60" y="20" width="51" height="51" rx="12" fill="white"/>
<rect x="60.5" y="20.5" width="50" height="50" rx="11.5" stroke="#EEEEEE"/>
</g>
<path d="M93.94 45C93.7135 42.9721 92.8042 41.0815 91.3613 39.6387C89.9185 38.1958 88.0279 37.2865 86 37.06V36C86 35.45 85.55 35 85 35C84.45 35 84 35.45 84 36V37.06C81.9721 37.2865 80.0815 38.1958 78.6387 39.6387C77.1958 41.0815 76.2865 42.9721 76.06 45H75C74.45 45 74 45.45 74 46C74 46.55 74.45 47 75 47H76.06C76.2865 49.0279 77.1958 50.9185 78.6387 52.3613C80.0815 53.8042 81.9721 54.7135 84 54.94V56C84 56.55 84.45 57 85 57C85.55 57 86 56.55 86 56V54.94C88.0279 54.7135 89.9185 53.8042 91.3613 52.3613C92.8042 50.9185 93.7135 49.0279 93.94 47H95C95.55 47 96 46.55 96 46C96 45.45 95.55 45 95 45H93.94ZM85 53C81.13 53 78 49.87 78 46C78 42.13 81.13 39 85 39C88.87 39 92 42.13 92 46C92 49.87 88.87 53 85 53Z" fill="#5669FF"/>
<circle cx="85" cy="46" r="4" fill="#A7B1FE"/>
<defs>
<filter id="filter0_d_704_6480" x="0" y="0" width="171" height="171" filterUnits="userSpaceOnUse" color-interpolation-filters="sRGB">
<feFlood flood-opacity="0" result="BackgroundImageFix"/>
<feColorMatrix in="SourceAlpha" type="matrix" values="0 0 0 0 0 0 0 0 0 0 0 0 0 0 0 0 0 0 127 0" result="hardAlpha"/>
<feOffset dy="40"/>
<feGaussianBlur stdDeviation="30"/>
<feColorMatrix type="matrix" values="0 0 0 0 0.827451 0 0 0 0 0.819608 0 0 0 0 0.847059 0 0 0 0.5 0"/>
<feBlend mode="normal" in2="BackgroundImageFix" result="effect1_dropShadow_704_6480"/>
<feBlend mode="normal" in="SourceGraphic" in2="effect1_dropShadow_704_6480" result="shape"/>
</filter>
</defs>
</svg>
