<svg width="24" height="25" viewBox="0 0 24 25" fill="none" xmlns="http://www.w3.org/2000/svg">
<path fill-rule="evenodd" clip-rule="evenodd" d="M11.9788 2.08329C14.2291 2.09371 16.3799 3.0312 17.9532 4.67703C19.5364 6.33328 20.4226 8.57285 20.4127 10.8958V10.9478C20.3529 14.1041 18.6602 17.0103 16.5492 19.2811C15.3543 20.5624 14.03 21.6978 12.5862 22.6561C12.1978 22.9999 11.6302 22.9999 11.2419 22.6561C9.10106 21.1978 7.20916 19.3645 5.67572 17.2291C4.33147 15.3749 3.56475 13.1458 3.48509 10.8228C3.505 5.97911 7.30873 2.07287 11.9788 2.08329ZM11.9788 13.8124C12.6857 13.8124 13.3628 13.5312 13.8607 13.0208C14.3785 12.4895 14.6682 11.7822 14.6682 11.0416C14.6682 9.49993 13.4624 8.26035 11.9788 8.26035C10.4951 8.26035 9.30021 9.49993 9.30021 11.0416C9.30021 12.5635 10.4752 13.7916 11.9489 13.8124H11.9788Z" fill="#200E32"/>
</svg>
