<svg width="31" height="41" viewBox="0 0 31 41" fill="none" xmlns="http://www.w3.org/2000/svg">
<g filter="url(#filter0_b_704_7071)">
<rect width="30.8764" height="30.6246" rx="7" fill="white" fill-opacity="0.7"/>
</g>
<path fill-rule="evenodd" clip-rule="evenodd" d="M16.4717 37.7293L12.2845 39.9708C11.9502 40.1406 11.5384 40.0204 11.3541 39.6993C11.3007 39.5999 11.272 39.4896 11.2701 39.3773V29.4452C11.2701 27.5509 12.5947 26.7933 14.5009 26.7933H18.9788C20.8268 26.7933 22.2096 27.5004 22.2096 29.3189V39.3773C22.2096 39.5565 22.1368 39.7283 22.0071 39.855C21.8775 39.9817 21.7016 40.0529 21.5182 40.0529C21.4013 40.0511 21.2863 40.023 21.1822 39.9708L16.9692 37.7293C16.814 37.6474 16.6269 37.6474 16.4717 37.7293Z" fill="#EB5757" stroke="#EB5757" stroke-width="1.5" stroke-linecap="round" stroke-linejoin="round"/>
<defs>
<filter id="filter0_b_704_7071" x="-6.1317" y="-6.1317" width="43.1398" height="42.888" filterUnits="userSpaceOnUse" color-interpolation-filters="sRGB">
<feFlood flood-opacity="0" result="BackgroundImageFix"/>
<feGaussianBlur in="BackgroundImageFix" stdDeviation="3"/>
<feComposite in2="SourceAlpha" operator="in" result="effect1_backgroundBlur_704_7071"/>
<feBlend mode="normal" in="SourceGraphic" in2="effect1_backgroundBlur_704_7071" result="shape"/>
</filter>
</defs>
</svg>
