<svg width="17" height="17" viewBox="0 0 17 17" fill="none" xmlns="http://www.w3.org/2000/svg">
<path fill-rule="evenodd" clip-rule="evenodd" d="M7.81638 13.3307L3.15747 15.8453C2.78549 16.0358 2.32722 15.901 2.12216 15.5407V15.5407C2.06283 15.4292 2.03082 15.3054 2.02869 15.1795V4.03744C2.02869 1.91245 3.50257 1.06245 5.62353 1.06245H10.606C12.6622 1.06245 14.2008 1.85578 14.2008 3.89578V15.1795C14.2008 15.3805 14.1198 15.5733 13.9755 15.7154C13.8312 15.8576 13.6356 15.9374 13.4315 15.9374C13.3014 15.9354 13.1735 15.9039 13.0577 15.8453L8.36999 13.3307C8.19725 13.2388 7.98912 13.2388 7.81638 13.3307Z" stroke="#121029" stroke-width="1.5" stroke-linecap="round" stroke-linejoin="round"/>
</svg>
