<svg width="20" height="20" viewBox="0 0 20 20" fill="none" xmlns="http://www.w3.org/2000/svg">
<g clip-path="url(#clip0_341_1625)">
<path d="M3.54167 0H16.4583C18.4167 0 20 1.58333 20 3.54167V15.9583C20 17.9167 18.4167 19.5 16.4583 19.5H3.54167C1.58333 19.5 0 17.9167 0 15.9583V3.54167C0 1.58333 1.58333 0 3.54167 0Z" fill="#470137"/>
<path d="M10.5166 5.125L8.0166 9.25L10.6833 13.625C10.6999 13.6583 10.7083 13.6917 10.6999 13.725C10.6916 13.7583 10.6583 13.7333 10.6083 13.7417H8.69993C8.5666 13.7417 8.47493 13.7333 8.4166 13.65C8.2416 13.3 8.05827 12.9583 7.88327 12.6083C7.70827 12.2667 7.5166 11.9167 7.3166 11.5583C7.1166 11.2 6.9166 10.8417 6.7166 10.475H6.69993C6.52493 10.8333 6.33327 11.1917 6.1416 11.55C5.94993 11.9083 5.75827 12.2667 5.57493 12.6167C5.38327 12.9667 5.1916 13.325 4.99993 13.6667C4.9666 13.75 4.89993 13.7583 4.80827 13.7583H2.97493C2.9416 13.7583 2.9166 13.775 2.9166 13.7333C2.90827 13.7 2.9166 13.6667 2.93327 13.6417L5.52493 9.39167L2.99993 5.11667C2.97493 5.08333 2.9666 5.05 2.98327 5.03333C2.99993 5.00833 3.03327 5 3.0666 5H4.95827C4.99993 5 5.0416 5.00833 5.07493 5.01667C5.10827 5.03333 5.13327 5.05833 5.15827 5.09167C5.3166 5.45 5.49993 5.80833 5.6916 6.16667C5.8916 6.525 6.08327 6.875 6.2916 7.225C6.4916 7.575 6.67493 7.925 6.84993 8.28333H6.8666C7.0416 7.91667 7.22493 7.55833 7.40827 7.20833C7.5916 6.85833 7.78327 6.50833 7.97493 6.15833C8.1666 5.80833 8.34993 5.45 8.53327 5.10833C8.5416 5.075 8.55827 5.04167 8.58327 5.025C8.6166 5.00833 8.64993 5 8.6916 5.00833H10.4499C10.4916 5 10.5333 5.025 10.5416 5.06667C10.5499 5.075 10.5333 5.10833 10.5166 5.125Z" fill="#FF61F6"/>
<path d="M14.3666 13.9166C13.7499 13.925 13.1332 13.8 12.5749 13.5416C12.0499 13.3 11.6166 12.9 11.3166 12.4083C11.0082 11.9 10.8582 11.2666 10.8582 10.5083C10.8499 9.89164 11.0082 9.28331 11.3166 8.74998C11.6332 8.20831 12.0916 7.75831 12.6416 7.45831C13.2249 7.13331 13.9249 6.97498 14.7499 6.97498C14.7916 6.97498 14.8499 6.97498 14.9249 6.98331C14.9999 6.99164 15.0832 6.99164 15.1832 6.99998V4.36664C15.1832 4.30831 15.2082 4.27498 15.2666 4.27498H16.9582C16.9999 4.26664 17.0332 4.29998 17.0416 4.33331C17.0416 4.34164 17.0416 4.34998 17.0416 4.34998V12.2833C17.0416 12.4333 17.0499 12.6 17.0582 12.7833C17.0749 12.9583 17.0832 13.125 17.0916 13.2666C17.0916 13.325 17.0666 13.375 17.0082 13.4C16.5749 13.5833 16.1166 13.7166 15.6499 13.8C15.2249 13.875 14.7999 13.9166 14.3666 13.9166ZM15.1832 12.25V8.58331C15.1082 8.56664 15.0332 8.54998 14.9582 8.54164C14.8666 8.53331 14.7749 8.52498 14.6832 8.52498C14.3582 8.52498 14.0332 8.59164 13.7416 8.74164C13.4582 8.88331 13.2166 9.09164 13.0332 9.35831C12.8499 9.62498 12.7582 9.98331 12.7582 10.4166C12.7499 10.7083 12.7999 11 12.8999 11.275C12.9832 11.5 13.1082 11.7 13.2749 11.8666C13.4332 12.0166 13.6249 12.1333 13.8416 12.2C14.0666 12.275 14.2999 12.3083 14.5332 12.3083C14.6582 12.3083 14.7749 12.3 14.8832 12.2916C14.9916 12.3 15.0832 12.2833 15.1832 12.25Z" fill="#FF61F6"/>
</g>
<defs>
<clipPath id="clip0_341_1625">
<rect width="20" height="19.5" fill="white"/>
</clipPath>
</defs>
</svg>
