<svg width="15" height="15" viewBox="0 0 15 15" fill="none" xmlns="http://www.w3.org/2000/svg">
<path d="M0.937439 11.0152C0.937439 11.4503 1.11029 11.8676 1.41797 12.1753C1.72564 12.483 2.14294 12.6558 2.57806 12.6558H12.4218C12.8569 12.6558 13.2742 12.483 13.5819 12.1753C13.8896 11.8676 14.0624 11.4503 14.0624 11.0152V6.50348H0.937439V11.0152ZM2.87103 8.78864C2.87103 8.55553 2.96363 8.33198 3.12846 8.16715C3.29328 8.00233 3.51684 7.90973 3.74994 7.90973H5.15619C5.38929 7.90973 5.61284 8.00233 5.77767 8.16715C5.94249 8.33198 6.03509 8.55553 6.03509 8.78864V9.37457C6.03509 9.60767 5.94249 9.83123 5.77767 9.99605C5.61284 10.1609 5.38929 10.2535 5.15619 10.2535H3.74994C3.51684 10.2535 3.29328 10.1609 3.12846 9.99605C2.96363 9.83123 2.87103 9.60767 2.87103 9.37457V8.78864Z" fill="#4FD1C5"/>
<path d="M12.4218 2.34296H2.57806C2.14294 2.34296 1.72564 2.51581 1.41797 2.82348C1.11029 3.13116 0.937439 3.54846 0.937439 3.98358V4.7453H14.0624V3.98358C14.0624 3.54846 13.8896 3.13116 13.5819 2.82348C13.2742 2.51581 12.8569 2.34296 12.4218 2.34296Z" fill="#4FD1C5"/>
</svg>
