<svg width="12" height="12" viewBox="0 0 12 12" fill="none" xmlns="http://www.w3.org/2000/svg">
<g clip-path="url(#clip0_341_2060)">
<path d="M7.79615 1.51341C7.34006 1.02098 6.70302 0.749813 5.9999 0.749813C5.29302 0.749813 4.65388 1.01934 4.1999 1.50872C3.74099 2.00348 3.5174 2.67591 3.5699 3.402C3.67396 4.8345 4.76404 5.99981 5.9999 5.99981C7.23576 5.99981 8.32396 4.83473 8.42966 3.40247C8.48287 2.68294 8.25787 2.01192 7.79615 1.51341Z" fill="#718096"/>
<path d="M10.125 11.2493H1.87501C1.76703 11.2507 1.66009 11.228 1.56197 11.1829C1.46386 11.1378 1.37704 11.0713 1.30782 10.9884C1.15548 10.8063 1.09407 10.5576 1.13954 10.3062C1.33736 9.20881 1.9547 8.28702 2.92501 7.63991C3.78704 7.06545 4.87899 6.74928 6.00001 6.74928C7.12102 6.74928 8.21298 7.06569 9.07501 7.63991C10.0453 8.28678 10.6627 9.20858 10.8605 10.3059C10.9059 10.5574 10.8445 10.8061 10.6922 10.9882C10.623 11.0711 10.5362 11.1376 10.4381 11.1828C10.34 11.2279 10.233 11.2507 10.125 11.2493Z" fill="#718096"/>
</g>
<defs>
<clipPath id="clip0_341_2060">
<rect width="12" height="12" fill="white"/>
</clipPath>
</defs>
</svg>
