<svg width="23" height="32" viewBox="0 0 23 32" fill="none" xmlns="http://www.w3.org/2000/svg">
<path fill-rule="evenodd" clip-rule="evenodd" d="M4.79171 5.48502C4.79171 2.45573 7.80269 0 11.5001 0C15.205 0 18.2085 2.45527 18.2085 5.48502V16.4759C18.2085 19.5052 15.1975 21.9609 11.5001 21.9609C7.79515 21.9609 4.79171 19.5056 4.79171 16.4759V5.48502ZM7.66673 5.48501V16.4759C7.66673 18.2054 9.38215 19.608 11.5001 19.608C13.6134 19.608 15.3335 18.2026 15.3335 16.4759V5.48501C15.3335 3.75546 13.618 2.35295 11.5001 2.35295C9.38681 2.35295 7.66673 3.75826 7.66673 5.48501ZM5.00984 29.0198H10.0626V25.8097C4.48429 25.2402 0.146728 21.3999 0.0036461 16.705C0.00122909 16.6709 0 16.6365 0 16.6018V16.4655V13.2023C0 12.4084 0.643596 11.7648 1.43751 11.7648C2.23143 11.7648 2.87502 12.4084 2.87502 13.2023V16.4655C2.87502 20.3678 6.73643 23.5295 11.5001 23.5295C16.2622 23.5295 20.122 20.3702 20.1252 16.4702C20.1252 16.4686 20.1252 16.467 20.1252 16.4655L20.1252 13.2023C20.1252 12.4084 20.7688 11.7648 21.5627 11.7648C22.3566 11.7648 23.0002 12.4084 23.0002 13.2023L23.0002 16.4655C23.0002 16.4673 23.0002 16.4691 23.0002 16.471V16.6018C23.0002 16.6365 22.999 16.6709 22.9966 16.7049C22.8535 21.399 18.5169 25.2402 12.9376 25.8097V29.0198H17.9903C18.6401 29.0198 19.1668 29.5465 19.1668 30.1963C19.1668 30.846 18.6401 31.3727 17.9903 31.3727H5.00984C4.36009 31.3727 3.83336 30.846 3.83336 30.1963C3.83336 29.5465 4.36009 29.0198 5.00984 29.0198Z" fill="#50555C"/>
</svg>
