<svg width="40" height="33" viewBox="0 0 40 33" fill="none" xmlns="http://www.w3.org/2000/svg">
<path fill-rule="evenodd" clip-rule="evenodd" d="M20 32.7365C8.9543 32.7365 0 25.4082 0 16.3682C0 7.32831 8.9543 0 20 0C31.0457 0 40 7.32831 40 16.3682C40 25.4082 31.0457 32.7365 20 32.7365ZM20 31.0577C29.9128 31.0577 37.9487 24.481 37.9487 16.3682C37.9487 8.2555 29.9128 1.67881 20 1.67881C10.0872 1.67881 2.05128 8.2555 2.05128 16.3682C2.05128 24.481 10.0872 31.0577 20 31.0577ZM16.4102 10.9122C16.4102 12.0711 15.2623 13.0107 13.8461 13.0107C12.43 13.0107 11.282 12.0711 11.282 10.9122C11.282 9.75321 12.43 8.81368 13.8461 8.81368C15.2623 8.81368 16.4102 9.75321 16.4102 10.9122ZM33.8461 18.4667C33.8461 21.862 27.647 27.7001 20 27.7001C12.353 27.7001 6.15384 21.9518 6.15384 18.4667C6.15384 16.4963 8.42082 16.909 11.9041 17.5431C14.1809 17.9576 16.9773 18.4667 20 18.4667C23.0227 18.4667 25.8191 17.9673 28.0959 17.5607C31.5792 16.9386 33.8461 16.5337 33.8461 18.4667ZM26.1538 13.0107C27.5699 13.0107 28.7179 12.0711 28.7179 10.9122C28.7179 9.75321 27.5699 8.81368 26.1538 8.81368C24.7377 8.81368 23.5897 9.75321 23.5897 10.9122C23.5897 12.0711 24.7377 13.0107 26.1538 13.0107ZM10.1365 18.7454C9.68976 18.6181 9.23076 18.9522 9.23076 19.4168V19.8969C9.23076 20.0574 9.28838 20.212 9.41077 20.3158C10.0779 20.8816 12.7612 22.6637 20.0919 22.6637C27.4433 22.6637 29.9902 20.8714 30.6069 20.311C30.7182 20.2099 30.7692 20.0639 30.7692 19.9136V19.4506C30.7692 18.9767 30.2911 18.639 29.8377 18.7769C28.2426 19.2621 24.7216 20.1455 20.2321 20.1455C15.6434 20.1455 11.8113 19.2226 10.1365 18.7454Z" fill="#50555C"/>
</svg>
