<svg width="20" height="20" viewBox="0 0 20 20" fill="none" xmlns="http://www.w3.org/2000/svg">
<g clip-path="url(#clip0_704_6527)">
<path d="M13.7387 12.4234C15.6441 12.3897 16.0634 9.76855 14.2654 9.14431L12.1894 11.3957C12.4485 12.0057 13.0592 12.4234 13.7387 12.4234Z" fill="#39C3F2"/>
<path d="M19.8871 9.02177C19.6202 7.42053 18.87 6.18464 17.7052 5.41293C17.1626 6.00181 15.6678 7.62235 15.1037 8.23444C16.0113 8.72638 16.5924 9.67899 16.5924 10.7418C16.5987 13.205 13.6263 14.5132 11.8148 12.8498C11.6421 13.232 11.3999 13.5836 11.0947 13.8888C9.88518 15.2001 6.13861 15.5171 4.53932 15.4705C4.49259 13.8672 4.81089 10.1224 6.12106 8.9151C6.78958 8.24694 7.6617 7.90427 8.53968 7.88746C9.5005 6.9985 10.8329 5.76553 11.7898 4.87997C10.4607 5.23022 8.51378 6.15752 7.91998 5.28204C7.64208 4.62618 8.90545 3.10219 7.90864 1.82324C7.09173 0.797515 5.26344 0.990187 4.23025 1.71891C-0.800245 5.19213 -1.4729 12.8231 2.91867 17.0682C8.29473 22.4856 17.6728 20.0313 19.7331 12.69C19.845 12.228 20.1652 10.7133 19.8871 9.02177Z" fill="#39C3F2"/>
<path d="M11.0947 8.91503C11.4213 9.24168 11.6757 9.62109 11.8499 10.0341C12.5153 9.31346 16.0285 5.50187 16.6118 4.86973L19.7311 1.48674C20.0718 1.1171 20.0808 0.57007 19.7518 0.240679C19.422 -0.0887116 18.8742 -0.079334 18.5046 0.26256L13.9427 4.48447C12.9522 5.40086 10.982 7.22482 9.97129 8.16012C10.38 8.33127 10.7625 8.5829 11.0947 8.91503Z" fill="#39C3F2"/>
<path d="M9.63999 9.29615C8.75001 8.86306 7.6715 9.02393 6.94977 9.74315C6.20433 10.4022 5.78108 12.9106 5.7381 14.271C7.10247 14.2267 9.60475 13.8059 10.2656 13.0593C10.7087 12.6162 10.9525 12.0274 10.9525 11.4014C10.9524 10.7746 10.7083 10.1857 10.2656 9.74354V9.74315C10.078 9.55521 9.86623 9.40634 9.63999 9.29615Z" fill="#39C3F2"/>
</g>
<defs>
<clipPath id="clip0_704_6527">
<rect width="19.6411" height="19.6411" fill="white" transform="scale(1.01827)"/>
</clipPath>
</defs>
</svg>
