<svg width="18" height="11" viewBox="0 0 18 11" fill="none" xmlns="http://www.w3.org/2000/svg">
<path fill-rule="evenodd" clip-rule="evenodd" d="M16.5916 0H15.5546C14.9819 0 14.5176 0.461711 14.5176 1.03126V9.96885C14.5176 10.5384 14.9819 11.0001 15.5546 11.0001H16.5916C17.1643 11.0001 17.6285 10.5384 17.6285 9.96885V1.03126C17.6285 0.461711 17.1643 0 16.5916 0ZM10.7154 2.40627H11.7524C12.3251 2.40627 12.7894 2.86798 12.7894 3.43753V9.96885C12.7894 10.5384 12.3251 11.0001 11.7524 11.0001H10.7154C10.1427 11.0001 9.67843 10.5384 9.67843 9.96885V3.43753C9.67843 2.86798 10.1427 2.40627 10.7154 2.40627ZM6.91315 4.81255H5.87618C5.30348 4.81255 4.83922 5.27426 4.83922 5.84381V9.96884C4.83922 10.5384 5.30348 11.0001 5.87618 11.0001H6.91315C7.48585 11.0001 7.95012 10.5384 7.95012 9.96884V5.84381C7.95012 5.27426 7.48585 4.81255 6.91315 4.81255ZM2.07395 6.87506H1.03698C0.464271 6.87506 0 7.33678 0 7.90632V9.96884C0 10.5384 0.464271 11.0001 1.03698 11.0001H2.07395C2.64666 11.0001 3.11093 10.5384 3.11093 9.96884V7.90632C3.11093 7.33678 2.64666 6.87506 2.07395 6.87506Z" fill="white"/>
</svg>
