<svg width="97" height="97" viewBox="0 0 97 97" fill="none" xmlns="http://www.w3.org/2000/svg">
<rect x="0.5" y="0.5" width="96" height="96" rx="14.5" stroke="#E2E8F0"/>
<path d="M61.6657 46.407L61.5287 45.8256H48.892V51.174H56.4422C55.6584 54.8964 52.0209 56.8558 49.0496 56.8558C46.8877 56.8558 44.6088 55.9464 43.1005 54.4847C42.3047 53.7012 41.6712 52.7684 41.2364 51.7398C40.8016 50.7112 40.5739 49.6069 40.5664 48.4901C40.5664 46.2373 41.5788 43.9839 43.052 42.5016C44.5252 41.0193 46.7501 40.1899 48.9623 40.1899C51.4958 40.1899 53.3116 41.5352 53.9906 42.1487L57.7911 38.3682C56.6763 37.3885 53.6135 34.9198 48.8399 34.9198C45.1569 34.9198 41.6255 36.3306 39.0441 38.9035C36.4966 41.437 35.178 45.1006 35.178 48.4998C35.178 51.8991 36.4257 55.3795 38.8943 57.9331C41.5321 60.6563 45.2678 62.0798 49.1145 62.0798C52.6144 62.0798 55.9318 60.7085 58.2962 58.2204C60.6205 55.7712 61.8227 52.3822 61.8227 48.8296C61.8227 47.334 61.6724 46.4458 61.6657 46.407Z" fill="#2D3748"/>
</svg>
