<svg width="18" height="18" viewBox="0 0 18 18" fill="none" xmlns="http://www.w3.org/2000/svg">
<g clip-path="url(#clip0_704_6844)">
<path d="M17.5323 15.1791L10.4741 8.17852L2.22787 -0.000493641H1.58342L1.45183 0.331151C1.10452 1.20652 0.956128 2.10183 1.02275 2.92018C1.09869 3.85301 1.45598 4.66063 2.05606 5.25582L8.49352 11.6408L9.34262 10.7986L15.294 17.3992C15.8861 17.9864 16.9051 18.0213 17.5323 17.3992C18.1494 16.7871 18.1494 15.7912 17.5323 15.1791Z" fill="white"/>
<path d="M5.50979 10.1631L0.467995 15.1638C-0.149068 15.7758 -0.149068 16.7717 0.467995 17.3837C1.05419 17.9652 2.06827 18.0165 2.70622 17.3837L7.74805 12.383L5.50979 10.1631Z" fill="white"/>
<path d="M17.2358 2.97186L14.3758 5.8085L13.6297 5.0685L16.4897 2.23182L15.7436 1.49182L12.8836 4.32846L12.1375 3.58846L14.9975 0.751815L14.2515 0.0118474L10.5211 3.71186C10.0647 4.1645 9.79219 4.76551 9.75366 5.40425C9.74392 5.56608 9.70694 5.72526 9.64559 5.87667L12.0689 8.28019C12.2215 8.21928 12.382 8.18263 12.5452 8.17297C13.1892 8.13486 13.7951 7.86451 14.2515 7.41187L17.9819 3.71189L17.2358 2.97186Z" fill="white"/>
</g>
<defs>
<clipPath id="clip0_704_6844">
<rect width="17.8045" height="17.6594" fill="white" transform="scale(1.01098)"/>
</clipPath>
</defs>
</svg>
