<svg width="52" height="56" viewBox="0 0 52 56" fill="none" xmlns="http://www.w3.org/2000/svg">
<ellipse cx="25.9999" cy="27.9753" rx="25.9999" ry="27.9753" fill="white"/>
<path d="M13.8664 27.0428C13.8664 26.2059 14.5448 25.5274 15.3817 25.5274H30.9774L24.0374 18.0601C23.5062 17.4886 23.514 16.6017 24.0552 16.0397C24.6405 15.4317 25.6165 15.4403 26.191 16.0585L36.3032 26.9389C36.3576 26.9975 36.3576 27.088 36.3032 27.1466L26.1931 38.0248C25.6206 38.6408 24.6455 38.6407 24.073 38.0247C23.5586 37.4712 23.5567 36.615 24.0686 36.0592L30.9774 28.5581H15.3817C14.5448 28.5581 13.8664 27.8796 13.8664 27.0428Z" fill="black"/>
</svg>
