<svg width="30" height="41" viewBox="0 0 30 41" fill="none" xmlns="http://www.w3.org/2000/svg">
<g filter="url(#filter0_b_704_7195)">
<rect width="29.7083" height="30.6246" rx="7" fill="white" fill-opacity="0.7"/>
</g>
<path fill-rule="evenodd" clip-rule="evenodd" d="M17.2423 37.7293L13.2135 39.9708C12.8919 40.1406 12.4956 40.0204 12.3183 39.6993V39.6993C12.267 39.5999 12.2393 39.4896 12.2374 39.3773V29.4452C12.2374 27.5509 13.512 26.7933 15.346 26.7933H19.6545C21.4326 26.7933 22.7631 27.5004 22.7631 29.3189V39.3773C22.7631 39.5565 22.693 39.7283 22.5683 39.855C22.4435 39.9817 22.2743 40.0529 22.0979 40.0529C21.9853 40.0511 21.8747 40.023 21.7746 39.9708L17.721 37.7293C17.5716 37.6474 17.3916 37.6474 17.2423 37.7293Z" stroke="#EB5757" stroke-width="1.5" stroke-linecap="round" stroke-linejoin="round"/>
<defs>
<filter id="filter0_b_704_7195" x="-6.1317" y="-6.1317" width="41.9717" height="42.888" filterUnits="userSpaceOnUse" color-interpolation-filters="sRGB">
<feFlood flood-opacity="0" result="BackgroundImageFix"/>
<feGaussianBlur in="BackgroundImageFix" stdDeviation="3"/>
<feComposite in2="SourceAlpha" operator="in" result="effect1_backgroundBlur_704_7195"/>
<feBlend mode="normal" in="SourceGraphic" in2="effect1_backgroundBlur_704_7195" result="shape"/>
</filter>
</defs>
</svg>
