<svg width="20" height="20" viewBox="0 0 20 20" fill="none" xmlns="http://www.w3.org/2000/svg">
<path d="M5.92676 9.23904C5.83499 9.11923 5.69949 9.04065 5.54992 9.0205C5.40035 9.00035 5.24888 9.04027 5.12868 9.13153C5.05796 9.1873 5.00091 9.25849 4.96189 9.33967L0.0617556 19.1427C-0.00764703 19.2816 -0.0190467 19.4424 0.0300624 19.5897C0.0791715 19.7371 0.18477 19.8589 0.323648 19.9284C0.404824 19.9694 0.49457 19.9907 0.58554 19.9904H7.41265C7.522 19.9932 7.62979 19.964 7.72282 19.9065C7.81586 19.849 7.89009 19.7656 7.93644 19.6665C9.40992 16.623 8.51673 11.9958 5.92676 9.23904Z" fill="url(#paint0_linear_341_1814)"/>
<path d="M9.52845 0.318097C8.30689 2.19786 7.59498 4.36289 7.46256 6.60079C7.33014 8.83868 7.78175 11.0726 8.7731 13.0833L12.0647 19.6664C12.1133 19.7637 12.188 19.8455 12.2806 19.9028C12.3731 19.96 12.4797 19.9903 12.5884 19.9903H19.4142C19.4912 19.9905 19.5674 19.9755 19.6386 19.9461C19.7097 19.9167 19.7744 19.8736 19.8288 19.8192C19.8833 19.7647 19.9264 19.7001 19.9558 19.6289C19.9851 19.5578 20.0002 19.4815 20 19.4045C20.0001 19.3137 19.9793 19.2241 19.9393 19.1426L10.525 0.31534C10.4803 0.220998 10.4098 0.141281 10.3216 0.0854578C10.2334 0.0296347 10.1311 0 10.0267 0C9.92234 0 9.8201 0.0296347 9.73189 0.0854578C9.64368 0.141281 9.57313 0.220998 9.52845 0.31534V0.318097Z" fill="#2684FF"/>
<defs>
<linearGradient id="paint0_linear_341_1814" x1="8.62425" y1="10.7373" x2="3.44981" y2="19.6996" gradientUnits="userSpaceOnUse">
<stop stop-color="#0052CC"/>
<stop offset="0.92" stop-color="#2684FF"/>
</linearGradient>
</defs>
</svg>
