<svg width="15" height="15" viewBox="0 0 15 15" fill="none" xmlns="http://www.w3.org/2000/svg">
<path d="M13.9933 1.12154C13.988 1.09562 13.9754 1.07178 13.9569 1.05278C13.9385 1.03379 13.9151 1.02045 13.8893 1.01431C12.1734 0.594778 8.20868 2.0898 6.06063 4.23696C5.67751 4.61699 5.32824 5.02968 5.01679 5.47036C4.35438 5.41177 3.69198 5.46069 3.12743 5.70679C1.53456 6.40786 1.07079 8.23716 0.941593 9.02407C0.934265 9.06714 0.937029 9.11133 0.949668 9.15315C0.962308 9.19497 0.984478 9.23329 1.01443 9.26509C1.04439 9.29689 1.08132 9.32131 1.12231 9.33643C1.1633 9.35154 1.20724 9.35694 1.25067 9.3522L3.80858 9.07007C3.81041 9.26292 3.82205 9.45555 3.84345 9.64721C3.85632 9.78032 3.9154 9.9047 4.01044 9.99878L5.00097 10.987C5.09513 11.0819 5.21947 11.1409 5.35253 11.154C5.54312 11.1753 5.73468 11.1869 5.92645 11.1888L5.64579 13.7435C5.64111 13.7869 5.64655 13.8308 5.66168 13.8718C5.67682 13.9128 5.70124 13.9497 5.73303 13.9796C5.76481 14.0095 5.80311 14.0317 5.8449 14.0444C5.88669 14.057 5.93085 14.0599 5.97392 14.0526C6.75936 13.9266 8.59188 13.4628 9.28885 11.87C9.53495 11.3054 9.58534 10.6462 9.5285 9.98706C9.97025 9.67558 10.384 9.32622 10.7651 8.94292C12.9199 6.79897 14.4064 2.92271 13.9933 1.12154ZM8.61532 6.3853C8.41856 6.18867 8.28454 5.9381 8.2302 5.66529C8.17587 5.39248 8.20366 5.10968 8.31007 4.85267C8.41648 4.59566 8.59672 4.37598 8.828 4.22142C9.05927 4.06686 9.33119 3.98436 9.60936 3.98436C9.88753 3.98436 10.1595 4.06686 10.3907 4.22142C10.622 4.37598 10.8022 4.59566 10.9087 4.85267C11.0151 5.10968 11.0429 5.39248 10.9885 5.66529C10.9342 5.9381 10.8002 6.18867 10.6034 6.3853C10.4729 6.51596 10.318 6.61962 10.1474 6.69034C9.97685 6.76106 9.79401 6.79746 9.60936 6.79746C9.42472 6.79746 9.24188 6.76106 9.07131 6.69034C8.90074 6.61962 8.74579 6.51596 8.61532 6.3853Z" fill="#4FD1C5"/>
<path d="M4.93362 11.7028C4.77308 11.8636 4.51556 11.9263 4.2056 11.9799C3.50921 12.0986 2.89427 11.4968 3.01937 10.7928C3.06712 10.5259 3.20833 10.1518 3.29622 10.0639C3.31543 10.0451 3.32822 10.0207 3.33277 9.99414C3.33731 9.96762 3.33339 9.94034 3.32155 9.91618C3.30971 9.89202 3.29056 9.8722 3.26682 9.85954C3.24308 9.84688 3.21595 9.84202 3.18929 9.84566C2.79986 9.8933 2.43757 10.0699 2.16009 10.3472C1.47132 11.0366 1.40628 13.5945 1.40628 13.5945C1.40628 13.5945 3.96565 13.5294 4.65442 12.8401C4.93264 12.5628 5.10942 12.2 5.15628 11.81C5.16712 11.6875 5.018 11.6146 4.93362 11.7028Z" fill="#4FD1C5"/>
</svg>
