<svg width="15" height="15" viewBox="0 0 15 15" fill="none" xmlns="http://www.w3.org/2000/svg">
<path d="M12.5391 6.56265H8.43751C8.06455 6.56265 7.70687 6.41449 7.44315 6.15077C7.17942 5.88705 7.03126 5.52936 7.03126 5.1564V1.05484C7.03126 1.02376 7.01892 0.993953 6.99694 0.971976C6.97496 0.949999 6.94516 0.937653 6.91408 0.937653H4.21877C3.72148 0.937653 3.24457 1.1352 2.89294 1.48683C2.54131 1.83846 2.34377 2.31537 2.34377 2.81265V12.1876C2.34377 12.6849 2.54131 13.1618 2.89294 13.5135C3.24457 13.8651 3.72148 14.0626 4.21877 14.0626H10.7813C11.2785 14.0626 11.7555 13.8651 12.1071 13.5135C12.4587 13.1618 12.6563 12.6849 12.6563 12.1876V6.67984C12.6563 6.64876 12.6439 6.61895 12.6219 6.59697C12.6 6.575 12.5702 6.56265 12.5391 6.56265Z" fill="#4FD1C5"/>
<path d="M12.2819 5.526L8.06867 1.31282C8.06047 1.30467 8.05006 1.29913 8.03872 1.29689C8.02739 1.29465 8.01565 1.29581 8.00497 1.30022C7.99429 1.30464 7.98516 1.31211 7.97872 1.3217C7.97228 1.33129 7.96881 1.34257 7.96877 1.35412V5.15715C7.96877 5.28147 8.01815 5.4007 8.10606 5.48861C8.19397 5.57652 8.31319 5.6259 8.43752 5.6259H12.2405C12.2521 5.62585 12.2634 5.62239 12.273 5.61595C12.2826 5.60951 12.29 5.60037 12.2944 5.5897C12.2989 5.57902 12.3 5.56728 12.2978 5.55594C12.2955 5.54461 12.29 5.53419 12.2819 5.526Z" fill="#4FD1C5"/>
</svg>
