<svg width="12" height="12" viewBox="0 0 12 12" fill="none" xmlns="http://www.w3.org/2000/svg">
<path d="M5.99991 4.12511C5.62907 4.12511 5.26656 4.23507 4.95822 4.4411C4.64987 4.64713 4.40955 4.93996 4.26764 5.28257C4.12572 5.62519 4.08859 6.00219 4.16094 6.3659C4.23328 6.72961 4.41186 7.06371 4.67408 7.32593C4.93631 7.58815 5.2704 7.76673 5.63411 7.83908C5.99783 7.91142 6.37483 7.87429 6.71744 7.73238C7.06005 7.59046 7.35289 7.35014 7.55891 7.0418C7.76494 6.73346 7.87491 6.37094 7.87491 6.0001C7.87342 5.50328 7.6754 5.02723 7.32409 4.67592C6.97278 4.32461 6.49673 4.12659 5.99991 4.12511ZM10.048 6.0001C10.0471 6.1753 10.0342 6.35024 10.0096 6.5237L11.1508 7.41714C11.2005 7.45818 11.234 7.51555 11.2452 7.57901C11.2565 7.64247 11.2449 7.70788 11.2124 7.76354L10.1329 9.62729C10.1001 9.68246 10.0488 9.7243 9.98822 9.74543C9.9276 9.76657 9.86148 9.76565 9.80147 9.74284L8.45967 9.20378C8.18027 9.41893 7.87451 9.59749 7.54983 9.7351L7.34921 11.1596C7.33798 11.2234 7.30494 11.2814 7.25573 11.3235C7.20653 11.3657 7.14422 11.3894 7.07944 11.3907H4.92038C4.85678 11.3895 4.79548 11.3667 4.74649 11.3262C4.69749 11.2856 4.66369 11.2296 4.65061 11.1674L4.44999 9.74284C4.12441 9.60682 3.81843 9.42797 3.54014 9.21104L2.19835 9.7501C2.13837 9.77293 2.07226 9.77389 2.01165 9.7528C1.95103 9.73171 1.8998 9.68992 1.86694 9.63479L0.787411 7.77128C0.754917 7.71561 0.743276 7.6502 0.754568 7.58674C0.76586 7.52329 0.79935 7.46591 0.849052 7.42487L1.99022 6.53143C1.96588 6.35535 1.95304 6.17786 1.95179 6.0001C1.95276 5.82491 1.9656 5.64997 1.99022 5.47651L0.849052 4.58307C0.79935 4.54203 0.76586 4.48466 0.754568 4.4212C0.743276 4.35774 0.754917 4.29233 0.787411 4.23667L1.86694 2.37292C1.89976 2.31775 1.95098 2.27591 2.0116 2.25478C2.07221 2.23364 2.13834 2.23456 2.19835 2.25737L3.54014 2.79643C3.81955 2.58128 4.12531 2.40272 4.44999 2.26511L4.65061 0.840576C4.66184 0.776767 4.69488 0.718838 4.74408 0.676687C4.79329 0.634537 4.8556 0.610782 4.92038 0.609482H7.07944C7.14304 0.61072 7.20434 0.63348 7.25333 0.674047C7.30233 0.714613 7.33612 0.770591 7.34921 0.832841L7.54983 2.25737C7.87582 2.3933 8.18219 2.57215 8.46084 2.78917L9.80147 2.25011C9.86145 2.22728 9.92756 2.22632 9.98817 2.24741C10.0488 2.2685 10.1 2.31029 10.1329 2.36542L11.2124 4.22917C11.2449 4.28483 11.2565 4.35024 11.2452 4.4137C11.234 4.47716 11.2005 4.53453 11.1508 4.57557L10.0096 5.46901C10.0339 5.64502 10.0468 5.82243 10.048 6.0001Z" fill="#718096"/>
</svg>
