<svg width="20" height="20" viewBox="0 0 20 20" fill="none" xmlns="http://www.w3.org/2000/svg">
<g clip-path="url(#clip0_704_6496)">
<path d="M9.37391 2.677C9.2434 1.81762 8.9795 0.9477 8.59508 0.0977004C6.59883 0.378403 4.79196 1.24829 3.35575 2.52618L8.31747 7.48793C9.28688 6.25508 9.66157 4.57118 9.37391 2.677Z" fill="#EE544A"/>
<path d="M8.32253 9.14904C7.13753 10.1275 5.61292 10.6386 3.89999 10.6387C3.44616 10.6387 2.97929 10.6028 2.50187 10.5304C1.66781 10.4037 0.827063 10.1661 0.00198507 9.82704C0.00108664 9.88388 -0.000124301 9.94068 -0.000124301 9.99775C-0.000124301 12.5483 0.955305 14.8754 2.52706 16.6419L9.17124 9.99775L8.32253 9.14904Z" fill="#EE544A"/>
<path d="M7.48868 8.31486L2.52692 3.35314C1.24903 4.78935 0.379149 6.59618 0.0984462 8.59243C0.948485 8.97685 1.81845 9.24083 2.6777 9.37134C4.572 9.65904 6.25587 9.28427 7.48868 8.31486Z" fill="#EE544A"/>
<path d="M17.3219 10.6245C15.4278 10.3367 13.7438 10.7115 12.511 11.6809L17.4727 16.6427C18.7506 15.2064 19.6205 13.3996 19.9012 11.4033C19.0513 11.0189 18.1814 10.755 17.3219 10.6245Z" fill="#EE544A"/>
<path d="M10.8484 11.6761L9.99993 10.8276L3.35575 17.4718C5.12227 19.0436 7.44934 19.999 9.99993 19.999C10.057 19.999 10.1138 19.9977 10.1706 19.9968C9.83164 19.1717 9.59399 18.331 9.46731 17.4969C9.12122 15.2176 9.61079 13.175 10.8484 11.6761Z" fill="#EE544A"/>
<path d="M9.15127 8.32111L9.99979 9.16962L16.644 2.52545C14.8774 0.95365 12.5504 -0.00174021 9.99979 -0.00174021C9.94272 -0.00174021 9.88592 -0.000529274 9.82909 0.000408226C10.1681 0.825447 10.4057 1.66611 10.5324 2.50029C10.8785 4.77963 10.3889 6.8222 9.15127 8.32111Z" fill="#EE544A"/>
<path d="M10.6257 17.3203C10.7561 18.1796 11.0202 19.0496 11.4045 19.8996C13.4008 19.6189 15.2076 18.749 16.6438 17.4711L11.6821 12.5094C10.7127 13.7422 10.338 15.4261 10.6257 17.3203Z" fill="#EE544A"/>
<path d="M11.6771 10.8459C13.176 9.60818 15.2186 9.11864 17.4979 9.46474C18.3321 9.59142 19.1728 9.82911 19.9978 10.1681C19.9987 10.1112 20 10.0544 20 9.99732C20 7.44673 19.0445 5.11966 17.4728 3.35314L10.8286 9.99736L11.6771 10.8459Z" fill="#EE544A"/>
</g>
<defs>
<clipPath id="clip0_704_6496">
<rect width="19.6411" height="19.6411" fill="white" transform="scale(1.01827)"/>
</clipPath>
</defs>
</svg>
