<svg width="20" height="20" viewBox="0 0 20 20" fill="none" xmlns="http://www.w3.org/2000/svg">
<g clip-path="url(#clip0_704_6514)">
<path d="M19.4801 17.0044L11.6377 9.162L2.47525 -0.000497203H1.75919L1.61298 0.371026C1.22708 1.35165 1.0622 2.35462 1.13622 3.27138C1.2206 4.31638 1.61759 5.2211 2.28435 5.88786L9.43708 13.0406L10.3805 12.0972L16.9932 19.4914C17.651 20.1492 18.7833 20.1883 19.4801 19.4914C20.1658 18.8057 20.1658 17.6901 19.4801 17.0044Z" fill="#29D697"/>
<path d="M6.1223 11.3852L0.520309 16.9872C-0.165315 17.6728 -0.165315 18.7885 0.520309 19.4741C1.17164 20.1254 2.2984 20.1829 3.00722 19.4741L8.60925 13.8721L6.1223 11.3852Z" fill="#29D697"/>
<path d="M19.151 3.32936L15.9732 6.50709L15.1442 5.67811L18.322 2.50034L17.493 1.67135L14.3153 4.84909L13.4863 4.0201L16.6641 0.84237L15.8351 0.0134245L11.6902 4.15835C11.1831 4.66542 10.8804 5.3387 10.8375 6.05424C10.8267 6.23553 10.7856 6.41385 10.7175 6.58346L13.41 9.276C13.5796 9.20776 13.758 9.1667 13.9392 9.15588C14.6548 9.11319 15.328 8.81034 15.8351 8.30327L19.98 4.15838L19.151 3.32936Z" fill="#29D697"/>
</g>
<defs>
<clipPath id="clip0_704_6514">
<rect width="19.6411" height="19.6411" fill="white" transform="scale(1.01827)"/>
</clipPath>
</defs>
</svg>
