<svg width="97" height="97" viewBox="0 0 97 97" fill="none" xmlns="http://www.w3.org/2000/svg">
<rect x="0.5" y="0.5" width="96" height="96" rx="14.5" stroke="#E2E8F0"/>
<g clip-path="url(#clip0_341_2682)">
<path d="M65.2052 48.5C65.2052 39.2785 57.7211 31.7944 48.4996 31.7944C39.2782 31.7944 31.7941 39.2785 31.7941 48.5C31.7941 56.5855 37.5408 63.3178 45.1585 64.8714V53.5117H41.8174V48.5H45.1585V44.3236C45.1585 41.0994 47.7813 38.4767 51.0055 38.4767H55.1818V43.4883H51.8407C50.9219 43.4883 50.1702 44.2401 50.1702 45.1589V48.5H55.1818V53.5117H50.1702V65.122C58.6065 64.2867 65.2052 57.1702 65.2052 48.5Z" fill="#2D3748"/>
</g>
<defs>
<clipPath id="clip0_341_2682">
<rect width="39.9365" height="39.9365" fill="white" transform="translate(28.453 28.4533) scale(1.00393)"/>
</clipPath>
</defs>
</svg>
