<svg width="24" height="23" viewBox="0 0 24 23" fill="none" xmlns="http://www.w3.org/2000/svg">
<path opacity="0.3" d="M11.5945 12.5782C12.1949 12.5782 12.6815 12.0955 12.6815 11.5C12.6815 10.9046 12.1949 10.4219 11.5945 10.4219C10.9942 10.4219 10.5076 10.9046 10.5076 11.5C10.5076 12.0955 10.9942 12.5782 11.5945 12.5782Z" fill="#5669FF"/>
<path d="M11.5945 2.15619C6.40009 2.15619 2.17397 6.34785 2.17397 11.4999C2.17397 16.652 6.40009 20.8437 11.5945 20.8437C16.789 20.8437 21.0151 16.652 21.0151 11.4999C21.0151 6.34785 16.789 2.15619 11.5945 2.15619ZM16.3533 7.24718L14.23 12.512C14.0842 12.8736 13.8659 13.202 13.5883 13.4774C13.3106 13.7528 12.9795 13.9693 12.6149 14.1139L7.30682 16.2199C7.24097 16.246 7.16884 16.2524 7.09936 16.2383C7.02988 16.2241 6.96612 16.1901 6.91597 16.1404C6.86581 16.0906 6.83149 16.0274 6.81723 15.9585C6.80298 15.8895 6.80943 15.818 6.83579 15.7527L8.95904 10.4878C9.10483 10.1263 9.32316 9.79782 9.60079 9.52245C9.87842 9.24709 10.2096 9.03053 10.5741 8.88593L15.8822 6.78C15.9481 6.75385 16.0202 6.74745 16.0897 6.76159C16.1592 6.77573 16.2229 6.80978 16.2731 6.85952C16.3232 6.90926 16.3576 6.97251 16.3718 7.04142C16.3861 7.11033 16.3796 7.18187 16.3533 7.24718Z" fill="#5669FF"/>
</svg>
