<svg width="16" height="16" viewBox="0 0 16 16" fill="none" xmlns="http://www.w3.org/2000/svg">
<path d="M13.581 6.66671C13.581 10.0459 10.5291 13.0755 8.84517 14.49C8.21048 15.0231 7.31068 15.0231 6.67599 14.49C4.99204 13.0755 1.94014 10.0459 1.94014 6.66671C1.94014 5.07542 2.55337 3.54931 3.64491 2.4241C4.73645 1.29889 6.2169 0.666748 7.76058 0.666748C9.30425 0.666748 10.7847 1.29889 11.8762 2.4241C12.9678 3.54931 13.581 5.07542 13.581 6.66671Z" fill="#716E90"/>
<path d="M7.76058 8.66673C8.83209 8.66673 9.70072 7.7713 9.70072 6.66674C9.70072 5.56217 8.83209 4.66675 7.76058 4.66675C6.68906 4.66675 5.82043 5.56217 5.82043 6.66674C5.82043 7.7713 6.68906 8.66673 7.76058 8.66673Z" fill="white"/>
</svg>
