<svg width="17" height="16" viewBox="0 0 17 16" fill="none" xmlns="http://www.w3.org/2000/svg">
<path d="M14.115 6.66671C14.115 10.0902 10.8595 13.1548 9.12494 14.5447C8.49846 15.0467 7.633 15.0467 7.00652 14.5447C5.27196 13.1548 2.01644 10.0902 2.01644 6.66671C2.01644 5.07542 2.65377 3.54931 3.78823 2.4241C4.9227 1.29889 6.46136 0.666748 8.06573 0.666748C9.6701 0.666748 11.2088 1.29889 12.3432 2.4241C13.4777 3.54931 14.115 5.07542 14.115 6.66671Z" fill="#716E90"/>
<path d="M8.06572 8.66673C9.17937 8.66673 10.0822 7.7713 10.0822 6.66674C10.0822 5.56217 9.17937 4.66675 8.06572 4.66675C6.95208 4.66675 6.04929 5.56217 6.04929 6.66674C6.04929 7.7713 6.95208 8.66673 8.06572 8.66673Z" fill="white"/>
</svg>
