<svg width="17" height="16" viewBox="0 0 17 16" fill="none" xmlns="http://www.w3.org/2000/svg">
<g clip-path="url(#clip0_704_6786)">
<path d="M14.115 6.66671C14.115 11.3334 8.06573 15.3333 8.06573 15.3333C8.06573 15.3333 2.01644 11.3334 2.01644 6.66671C2.01644 5.07542 2.65377 3.54931 3.78823 2.4241C4.9227 1.29889 6.46136 0.666748 8.06573 0.666748C9.6701 0.666748 11.2088 1.29889 12.3432 2.4241C13.4777 3.54931 14.115 5.07542 14.115 6.66671Z" fill="#747688" stroke="#747688" stroke-width="1.5" stroke-linecap="round" stroke-linejoin="round"/>
<path d="M8.06572 8.66673C9.17937 8.66673 10.0822 7.7713 10.0822 6.66674C10.0822 5.56217 9.17937 4.66675 8.06572 4.66675C6.95208 4.66675 6.04929 5.56217 6.04929 6.66674C6.04929 7.7713 6.95208 8.66673 8.06572 8.66673Z" fill="white" stroke="white" stroke-linecap="round" stroke-linejoin="round"/>
</g>
<defs>
<clipPath id="clip0_704_6786">
<rect width="16.1137" height="15.9823" fill="white" transform="scale(1.0011)"/>
</clipPath>
</defs>
</svg>
