<svg width="171" height="171" viewBox="0 0 171 171" fill="none" xmlns="http://www.w3.org/2000/svg">
<g filter="url(#filter0_d_704_6486)">
<rect x="60" y="20" width="51" height="51" rx="25.5" fill="white"/>
<rect x="60.5" y="20.5" width="50" height="50" rx="25" stroke="#EEEEEE"/>
</g>
<path d="M86.1235 32.2104C78.452 32.2104 72.2107 38.4518 72.2107 46.1232C72.2107 53.7947 78.452 60.036 86.1235 60.036C93.7949 60.036 100.036 53.7947 100.036 46.1232C100.036 38.4518 93.7949 32.2104 86.1235 32.2104ZM88.2639 52.5445H83.983C83.6992 52.5445 83.427 52.4318 83.2263 52.2311C83.0256 52.0304 82.9128 51.7581 82.9128 51.4743C82.9128 51.1905 83.0256 50.9182 83.2263 50.7175C83.427 50.5168 83.6992 50.4041 83.983 50.4041H88.2639C88.5477 50.4041 88.82 50.5168 89.0207 50.7175C89.2214 50.9182 89.3341 51.1905 89.3341 51.4743C89.3341 51.7581 89.2214 52.0304 89.0207 52.2311C88.82 52.4318 88.5477 52.5445 88.2639 52.5445ZM91.4745 48.2637H80.7724C80.4886 48.2637 80.2164 48.1509 80.0157 47.9502C79.8149 47.7495 79.7022 47.4773 79.7022 47.1934C79.7022 46.9096 79.8149 46.6374 80.0157 46.4367C80.2164 46.236 80.4886 46.1232 80.7724 46.1232H91.4745C91.7584 46.1232 92.0306 46.236 92.2313 46.4367C92.432 46.6374 92.5448 46.9096 92.5448 47.1934C92.5448 47.4773 92.432 47.7495 92.2313 47.9502C92.0306 48.1509 91.7584 48.2637 91.4745 48.2637ZM93.615 43.9828H78.632C78.3481 43.9828 78.0759 43.87 77.8752 43.6693C77.6745 43.4686 77.5618 43.1964 77.5618 42.9126C77.5618 42.6288 77.6745 42.3565 77.8752 42.1558C78.0759 41.9551 78.3481 41.8424 78.632 41.8424H93.615C93.8988 41.8424 94.171 41.9551 94.3717 42.1558C94.5724 42.3565 94.6852 42.6288 94.6852 42.9126C94.6852 43.1964 94.5724 43.4686 94.3717 43.6693C94.171 43.87 93.8988 43.9828 93.615 43.9828Z" fill="#5669FF"/>
<defs>
<filter id="filter0_d_704_6486" x="0" y="0" width="171" height="171" filterUnits="userSpaceOnUse" color-interpolation-filters="sRGB">
<feFlood flood-opacity="0" result="BackgroundImageFix"/>
<feColorMatrix in="SourceAlpha" type="matrix" values="0 0 0 0 0 0 0 0 0 0 0 0 0 0 0 0 0 0 127 0" result="hardAlpha"/>
<feOffset dy="40"/>
<feGaussianBlur stdDeviation="30"/>
<feColorMatrix type="matrix" values="0 0 0 0 0.827451 0 0 0 0 0.819608 0 0 0 0 0.847059 0 0 0 0.5 0"/>
<feBlend mode="normal" in2="BackgroundImageFix" result="effect1_dropShadow_704_6486"/>
<feBlend mode="normal" in="SourceGraphic" in2="effect1_dropShadow_704_6486" result="shape"/>
</filter>
</defs>
</svg>
