<svg width="24" height="25" viewBox="0 0 24 25" fill="none" xmlns="http://www.w3.org/2000/svg">
<path fill-rule="evenodd" clip-rule="evenodd" d="M17.1804 7.70862C17.1804 10.8154 14.8394 13.334 11.9515 13.334C9.06363 13.334 6.72255 10.8154 6.72255 7.70862C6.72255 4.60183 9.06363 2.08327 11.9515 2.08327C14.8394 2.08327 17.1804 4.60183 17.1804 7.70862ZM16.4396 16.5034C18.1022 16.8556 19.1876 17.4302 19.6528 18.3569C20.0021 19.0802 20.0021 19.9413 19.6528 20.6645C19.1876 21.5913 18.1452 22.2029 16.4224 22.518C15.6547 22.68 14.8775 22.7853 14.0965 22.8331C13.3729 22.9165 12.6493 22.9165 11.917 22.9165H10.599C10.3234 22.8795 10.0563 22.8609 9.7979 22.8609C9.0168 22.8189 8.23952 22.7167 7.47201 22.5551C5.80943 22.2215 4.72401 21.6284 4.25884 20.7016C4.07926 20.3426 3.98459 19.9416 3.98318 19.5339C3.97943 19.1238 4.07124 18.7191 4.25022 18.3569C4.70678 17.4302 5.7922 16.8278 7.47201 16.5034C8.2429 16.3452 9.02284 16.243 9.80651 16.1976C11.24 16.0768 12.6802 16.0768 14.1137 16.1976C14.8943 16.2452 15.6713 16.3474 16.4396 16.5034Z" fill="#2C3550"/>
</svg>
