<svg width="36" height="36" viewBox="0 0 36 36" fill="none" xmlns="http://www.w3.org/2000/svg">
<g filter="url(#filter0_d_341_1930)">
<rect x="5.5" y="2" width="25" height="25" rx="6" fill="#4FD1C5"/>
</g>
<path d="M23.4119 9.18465C23.4075 9.16306 23.397 9.14318 23.3816 9.12736C23.3663 9.11153 23.3467 9.10041 23.3253 9.09529C21.8953 8.74569 18.5914 9.99153 16.8013 11.7808C16.4821 12.0975 16.191 12.4414 15.9315 12.8087C15.3795 12.7598 14.8275 12.8006 14.357 13.0057C13.0296 13.5899 12.6431 15.1143 12.5355 15.7701C12.5294 15.806 12.5317 15.8428 12.5422 15.8777C12.5527 15.9125 12.5712 15.9444 12.5962 15.9709C12.6211 15.9974 12.6519 16.0178 12.6861 16.0304C12.7202 16.043 12.7569 16.0475 12.793 16.0435L14.9246 15.8084C14.9262 15.9691 14.9359 16.1297 14.9537 16.2894C14.9644 16.4003 15.0137 16.504 15.0929 16.5823L15.9183 17.4058C15.9968 17.4849 16.1004 17.5341 16.2113 17.545C16.3701 17.5628 16.5297 17.5725 16.6895 17.574L16.4556 19.703C16.4517 19.7391 16.4563 19.7757 16.4689 19.8099C16.4815 19.844 16.5018 19.8747 16.5283 19.8997C16.5548 19.9247 16.5867 19.9431 16.6216 19.9537C16.6564 19.9642 16.6932 19.9666 16.7291 19.9605C17.3836 19.8555 18.9107 19.4691 19.4915 18.1417C19.6966 17.6712 19.7386 17.1219 19.6912 16.5726C20.0594 16.313 20.4042 16.0219 20.7218 15.7025C22.5174 13.9158 23.7562 10.6856 23.4119 9.18465ZM18.9302 13.5711C18.7663 13.4073 18.6546 13.1985 18.6093 12.9711C18.564 12.7438 18.5872 12.5081 18.6759 12.2939C18.7645 12.0798 18.9147 11.8967 19.1075 11.7679C19.3002 11.6391 19.5268 11.5703 19.7586 11.5703C19.9904 11.5703 20.217 11.6391 20.4098 11.7679C20.6025 11.8967 20.7527 12.0798 20.8414 12.2939C20.93 12.5081 20.9532 12.7438 20.9079 12.9711C20.8626 13.1985 20.751 13.4073 20.587 13.5711C20.4783 13.68 20.3491 13.7664 20.207 13.8253C20.0649 13.8843 19.9125 13.9146 19.7586 13.9146C19.6047 13.9146 19.4524 13.8843 19.3102 13.8253C19.1681 13.7664 19.039 13.68 18.9302 13.5711Z" fill="white"/>
<path d="M15.8622 18.0023C15.7284 18.1363 15.5138 18.1886 15.2555 18.2333C14.6751 18.3321 14.1627 17.8307 14.2669 17.244C14.3067 17.0216 14.4244 16.7098 14.4977 16.6366C14.5137 16.6209 14.5243 16.6005 14.5281 16.5784C14.5319 16.5563 14.5286 16.5336 14.5188 16.5135C14.5089 16.4933 14.4929 16.4768 14.4732 16.4663C14.4534 16.4557 14.4308 16.4517 14.4085 16.4547C14.084 16.4944 13.7821 16.6415 13.5509 16.8727C12.9769 17.4471 12.9227 19.5787 12.9227 19.5787C12.9227 19.5787 15.0555 19.5245 15.6295 18.9501C15.8613 18.719 16.0087 18.4166 16.0477 18.0917C16.0567 17.9896 15.9325 17.9288 15.8622 18.0023Z" fill="white"/>
<defs>
<filter id="filter0_d_341_1930" x="-4.76837e-07" y="-2.38418e-07" width="36" height="36" filterUnits="userSpaceOnUse" color-interpolation-filters="sRGB">
<feFlood flood-opacity="0" result="BackgroundImageFix"/>
<feColorMatrix in="SourceAlpha" type="matrix" values="0 0 0 0 0 0 0 0 0 0 0 0 0 0 0 0 0 0 127 0" result="hardAlpha"/>
<feOffset dy="3.5"/>
<feGaussianBlur stdDeviation="2.75"/>
<feColorMatrix type="matrix" values="0 0 0 0 0 0 0 0 0 0 0 0 0 0 0 0 0 0 0.02 0"/>
<feBlend mode="normal" in2="BackgroundImageFix" result="effect1_dropShadow_341_1930"/>
<feBlend mode="normal" in="SourceGraphic" in2="effect1_dropShadow_341_1930" result="shape"/>
</filter>
</defs>
</svg>
