<svg width="16" height="16" viewBox="0 0 16 16" fill="none" xmlns="http://www.w3.org/2000/svg">
<path d="M13.7525 10.6656C13.7006 10.6031 13.6497 10.5406 13.5997 10.4803C12.9122 9.64875 12.4963 9.14688 12.4963 6.79282C12.4963 5.57407 12.2047 4.57407 11.63 3.82407C11.2063 3.27001 10.6334 2.84969 9.87845 2.53907C9.86873 2.53366 9.86005 2.52658 9.85282 2.51813C9.58126 1.60876 8.83813 0.999695 8.00001 0.999695C7.16188 0.999695 6.41907 1.60876 6.14751 2.51719C6.14026 2.52533 6.13171 2.53219 6.1222 2.53751C4.36032 3.26282 3.50407 4.65438 3.50407 6.79188C3.50407 9.14688 3.08876 9.64875 2.40064 10.4794C2.35064 10.5397 2.2997 10.6009 2.24782 10.6647C2.11382 10.8263 2.02892 11.0229 2.00317 11.2312C1.97742 11.4396 2.01189 11.651 2.10251 11.8403C2.29532 12.2466 2.70626 12.4988 3.17532 12.4988H12.8281C13.295 12.4988 13.7031 12.2469 13.8966 11.8425C13.9876 11.6531 14.0224 11.4416 13.9968 11.233C13.9713 11.0244 13.8865 10.8275 13.7525 10.6656Z" fill="#4FD1C5"/>
<path d="M7.99998 14.9999C8.45156 14.9995 8.89461 14.8769 9.28216 14.6451C9.6697 14.4134 9.98729 14.081 10.2012 13.6833C10.2113 13.6643 10.2163 13.6429 10.2157 13.6214C10.2151 13.5998 10.2089 13.5788 10.1978 13.5603C10.1866 13.5419 10.1709 13.5266 10.1521 13.516C10.1334 13.5054 10.1122 13.4999 10.0906 13.4999H5.90998C5.8884 13.4998 5.86716 13.5053 5.84834 13.5159C5.82952 13.5265 5.81376 13.5417 5.80259 13.5602C5.79141 13.5787 5.78522 13.5997 5.7846 13.6213C5.78398 13.6429 5.78896 13.6642 5.79905 13.6833C6.01296 14.0809 6.3305 14.4133 6.71799 14.6451C7.10547 14.8769 7.54846 14.9995 7.99998 14.9999Z" fill="#4FD1C5"/>
</svg>
