<svg width="15" height="15" viewBox="0 0 15 15" fill="none" xmlns="http://www.w3.org/2000/svg">
<path d="M13.3795 12.3459L10.6229 9.58932C11.2866 8.70583 11.6448 7.63043 11.6436 6.52545C11.6436 3.70299 9.34734 1.4067 6.52488 1.4067C3.70242 1.4067 1.40613 3.70299 1.40613 6.52545C1.40613 9.34791 3.70242 11.6442 6.52488 11.6442C7.62986 11.6454 8.70525 11.2871 9.58874 10.6235L12.3453 13.38C12.4848 13.5048 12.6668 13.5714 12.8539 13.5661C13.041 13.5609 13.219 13.4842 13.3513 13.3519C13.4836 13.2195 13.5603 13.0416 13.5655 12.8545C13.5708 12.6674 13.5042 12.4854 13.3795 12.3459ZM2.86863 6.52545C2.86863 5.80231 3.08306 5.09542 3.48482 4.49415C3.88657 3.89288 4.4576 3.42425 5.12569 3.14752C5.79378 2.87079 6.52893 2.79838 7.23817 2.93946C7.94742 3.08053 8.5989 3.42876 9.11023 3.94009C9.62157 4.45143 9.96979 5.10291 10.1109 5.81215C10.2519 6.5214 10.1795 7.25655 9.90281 7.92464C9.62608 8.59273 9.15745 9.16376 8.55618 9.56551C7.95491 9.96726 7.24801 10.1817 6.52488 10.1817C5.55554 10.1805 4.62623 9.79495 3.9408 9.10953C3.25537 8.4241 2.86979 7.49479 2.86863 6.52545Z" fill="#2D3748"/>
</svg>
