<svg width="56" height="56" viewBox="0 0 56 56" fill="none" xmlns="http://www.w3.org/2000/svg">
<g filter="url(#filter0_d_341_2035)">
<rect x="5.5" y="2" width="45" height="45" rx="12" fill="#4FD1C5"/>
</g>
<path d="M20.9467 17.8182H35.0092C35.1734 17.8181 35.3375 17.8285 35.5005 17.8494C35.4453 17.4617 35.3121 17.0892 35.109 16.7543C34.9059 16.4195 34.6371 16.1292 34.3188 15.9011C34.0006 15.6729 33.6394 15.5116 33.257 15.4268C32.8747 15.342 32.4792 15.3355 32.0943 15.4078L20.5292 17.3822H20.516C19.7901 17.521 19.1445 17.9318 18.7112 18.5305C19.364 18.0661 20.1455 17.8171 20.9467 17.8182Z" fill="white"/>
<path d="M35.0093 18.8748H20.9468C20.2012 18.8756 19.4863 19.1722 18.959 19.6995C18.4317 20.2267 18.1352 20.9416 18.1343 21.6873V30.1248C18.1352 30.8705 18.4317 31.5854 18.959 32.1126C19.4863 32.6399 20.2012 32.9365 20.9468 32.9373H35.0093C35.755 32.9365 36.4699 32.6399 36.9972 32.1126C37.5244 31.5854 37.821 30.8705 37.8218 30.1248V21.6873C37.821 20.9416 37.5244 20.2267 36.9972 19.6995C36.4699 19.1722 35.755 18.8756 35.0093 18.8748ZM32.9219 27.3123C32.6438 27.3123 32.3719 27.2298 32.1407 27.0753C31.9094 26.9208 31.7292 26.7012 31.6227 26.4442C31.5163 26.1873 31.4884 25.9045 31.5427 25.6317C31.597 25.3589 31.7309 25.1084 31.9276 24.9117C32.1242 24.715 32.3748 24.5811 32.6476 24.5268C32.9204 24.4726 33.2031 24.5004 33.4601 24.6069C33.717 24.7133 33.9367 24.8935 34.0912 25.1248C34.2457 25.356 34.3282 25.6279 34.3282 25.9061C34.3282 26.279 34.18 26.6367 33.9163 26.9004C33.6526 27.1642 33.2949 27.3123 32.9219 27.3123Z" fill="white"/>
<path d="M18.1562 24.6514V20.2788C18.1562 19.3265 18.6836 17.73 20.5139 17.3841C22.0674 17.0928 23.6054 17.0928 23.6054 17.0928C23.6054 17.0928 24.6162 17.7959 23.7812 17.7959C22.9463 17.7959 22.9682 18.8726 23.7812 18.8726C24.5942 18.8726 23.7812 19.9053 23.7812 19.9053L20.5073 23.6186L18.1562 24.6514Z" fill="white"/>
<defs>
<filter id="filter0_d_341_2035" x="-4.76837e-07" y="-2.38419e-07" width="56" height="56" filterUnits="userSpaceOnUse" color-interpolation-filters="sRGB">
<feFlood flood-opacity="0" result="BackgroundImageFix"/>
<feColorMatrix in="SourceAlpha" type="matrix" values="0 0 0 0 0 0 0 0 0 0 0 0 0 0 0 0 0 0 127 0" result="hardAlpha"/>
<feOffset dy="3.5"/>
<feGaussianBlur stdDeviation="2.75"/>
<feColorMatrix type="matrix" values="0 0 0 0 0 0 0 0 0 0 0 0 0 0 0 0 0 0 0.02 0"/>
<feBlend mode="normal" in2="BackgroundImageFix" result="effect1_dropShadow_341_2035"/>
<feBlend mode="normal" in="SourceGraphic" in2="effect1_dropShadow_341_2035" result="shape"/>
</filter>
</defs>
</svg>
