<svg width="12" height="12" viewBox="0 0 12 12" fill="none" xmlns="http://www.w3.org/2000/svg">
<path d="M10.3144 7.99921C10.2755 7.95234 10.2373 7.90546 10.1998 7.86023C9.68421 7.23656 9.37225 6.86015 9.37225 5.0946C9.37225 4.18054 9.15358 3.43054 8.72257 2.86804C8.40475 2.4525 7.97514 2.13726 7.40889 1.90429C7.40161 1.90024 7.3951 1.89492 7.38968 1.88859C7.186 1.20656 6.62866 0.749763 6.00007 0.749763C5.37147 0.749763 4.81436 1.20656 4.61069 1.88789C4.60526 1.89399 4.59884 1.89914 4.59171 1.90312C3.2703 2.44711 2.62812 3.49078 2.62812 5.0939C2.62812 6.86015 2.31663 7.23656 1.80054 7.85952C1.76304 7.90476 1.72484 7.9507 1.68593 7.99851C1.58543 8.11971 1.52175 8.26716 1.50244 8.42342C1.48313 8.57968 1.50898 8.7382 1.57694 8.88023C1.72155 9.18491 2.02976 9.37405 2.38155 9.37405H9.62116C9.97131 9.37405 10.2774 9.18515 10.4225 8.88187C10.4907 8.73981 10.5168 8.58116 10.4977 8.42472C10.4785 8.26828 10.4149 8.12061 10.3144 7.99921Z" fill="#718096"/>
<path d="M6.00008 11.25C6.33876 11.2497 6.67105 11.1578 6.96171 10.9839C7.25237 10.8101 7.49056 10.5608 7.65102 10.2625C7.65857 10.2483 7.66231 10.2322 7.66185 10.2161C7.6614 10.1999 7.65677 10.1842 7.64842 10.1703C7.64007 10.1565 7.62828 10.145 7.6142 10.1371C7.60011 10.1291 7.58422 10.125 7.56805 10.125H4.43258C4.41639 10.1249 4.40046 10.129 4.38635 10.137C4.37223 10.1449 4.36041 10.1564 4.35203 10.1702C4.34365 10.1841 4.339 10.1998 4.33854 10.216C4.33807 10.2322 4.34181 10.2482 4.34938 10.2625C4.50981 10.5608 4.74797 10.81 5.03858 10.9839C5.3292 11.1577 5.66144 11.2497 6.00008 11.25Z" fill="#718096"/>
</svg>
