<svg width="842" height="252" viewBox="0 0 842 252" fill="none" xmlns="http://www.w3.org/2000/svg">
<path d="M726.41 171.137C770.047 158.031 821.174 176.598 841.284 187.52V251.395H0.720942V1.47792C42.9501 8.97512 70.0975 70.6188 76.8843 109.771C82.4197 141.703 82.6657 164.473 112.075 171.137C141.642 177.836 176.698 156.517 206.359 127.639C230.087 104.537 265.513 118.013 280.26 127.639C306.402 144.392 349.464 155.754 384.052 138.649C427.286 117.268 451.166 123.377 505.712 138.649C560.258 153.921 554.728 163.64 600.225 187.52C645.722 211.399 671.864 187.52 726.41 171.137Z" fill="url(#paint0_linear_341_1892)"/>
<path d="M841.284 187.52C821.174 176.598 770.047 158.031 726.41 171.137C671.864 187.52 645.722 211.399 600.225 187.52C554.728 163.64 560.258 153.921 505.712 138.649C451.166 123.377 427.286 117.268 384.052 138.649C349.464 155.754 306.402 144.392 280.26 127.639C265.513 118.013 230.087 104.537 206.359 127.639C176.698 156.517 141.642 177.836 112.075 171.137C82.6657 164.473 82.4197 141.703 76.8843 109.771C70.0975 70.6188 42.9502 8.97512 0.720942 1.47792" stroke="#2D3748" stroke-width="3"/>
<path d="M114.711 144.03C71.41 130.933 20.6755 149.487 0.720942 160.401V251.145H840.283V36.4087C798.378 43.9004 762.781 41.9577 756.046 81.081C750.553 112.99 750.309 135.743 721.126 142.402C691.786 149.097 674.731 109.938 645.298 81.081C621.752 57.9955 582.096 88.0358 567.463 97.6548C541.522 114.396 482.55 77.8698 456.994 49.1579C420.502 8.16047 372.512 4.41071 336.269 49.1579C300.025 93.905 264.075 57.2186 218.928 81.081C173.78 104.943 168.838 160.401 114.711 144.03Z" fill="url(#paint1_linear_341_1892)"/>
<path d="M0.720942 160.584C20.6755 149.657 71.41 131.079 114.711 144.193C168.838 160.584 173.78 105.056 218.928 81.1631C264.075 57.2701 300.025 94.0035 336.269 49.199C372.512 4.3946 420.502 8.14917 456.994 49.199C482.55 77.9478 541.522 114.52 567.463 97.7581C582.096 88.1268 621.752 58.048 645.298 81.1631C674.731 110.057 691.786 149.266 721.126 142.563C750.309 135.895 750.553 113.113 756.046 81.1631C762.781 41.9896 798.378 43.9349 840.283 36.4336" stroke="#4FD1C5" stroke-width="3"/>
<defs>
<linearGradient id="paint0_linear_341_1892" x1="421.002" y1="1.47792" x2="421.002" y2="251.395" gradientUnits="userSpaceOnUse">
<stop stop-color="#2D3748" stop-opacity="0.36"/>
<stop offset="1" stop-color="#2D3748" stop-opacity="0"/>
</linearGradient>
<linearGradient id="paint1_linear_341_1892" x1="420.502" y1="16.9883" x2="420.502" y2="251.145" gradientUnits="userSpaceOnUse">
<stop stop-color="#4FD1C5" stop-opacity="0.54"/>
<stop offset="1" stop-color="#4FD1C5" stop-opacity="0"/>
</linearGradient>
</defs>
</svg>
