<svg width="82" height="87" viewBox="0 0 82 87" fill="none" xmlns="http://www.w3.org/2000/svg">
<g filter="url(#filter0_d_704_6645)">
<path fill-rule="evenodd" clip-rule="evenodd" d="M20 5C14.4772 5 10 9.47715 10 15V37C10 42.5228 14.4772 47 20 47H24.9956L29.2329 51.2342C30.209 52.2096 31.791 52.2096 32.7671 51.2342L37.0044 47H42C47.5228 47 52 42.5228 52 37V15C52 9.47715 47.5228 5 42 5H20Z" fill="white"/>
</g>
<rect x="16" y="11" width="30" height="30" rx="8" fill="#EE544A"/>
<g clip-path="url(#clip0_704_6645)">
<path d="M30.0303 21.008C29.9325 20.3634 29.7345 19.711 29.4462 19.0735C27.949 19.284 26.5939 19.9364 25.5167 20.8948L29.238 24.6162C29.9651 23.6915 30.2461 22.4286 30.0303 21.008Z" fill="white"/>
<path d="M29.2419 25.8621C28.3531 26.5959 27.2097 26.9793 25.925 26.9793C25.5846 26.9793 25.2344 26.9524 24.8764 26.8981C24.2508 26.803 23.6203 26.6248 23.0015 26.3706C23.0008 26.4132 22.9999 26.4558 22.9999 26.4986C22.9999 28.4115 23.7165 30.1568 24.8953 31.4817L29.8784 26.4986L29.2419 25.8621Z" fill="white"/>
<path d="M28.6167 25.2362L24.8953 21.5149C23.9369 22.5921 23.2845 23.9472 23.074 25.4444C23.7115 25.7327 24.364 25.9307 25.0084 26.0285C26.4291 26.2443 27.692 25.9632 28.6167 25.2362Z" fill="white"/>
<path d="M35.9914 26.9685C34.5707 26.7527 33.3078 27.0338 32.3832 27.7609L36.1045 31.4822C37.0629 30.405 37.7153 29.0499 37.9259 27.5527C37.2884 27.2644 36.6359 27.0664 35.9914 26.9685Z" fill="white"/>
<path d="M31.1362 27.7572L30.4999 27.1208L25.5167 32.104C26.8416 33.2828 28.5869 33.9994 30.4999 33.9994C30.5427 33.9994 30.5853 33.9985 30.6279 33.9978C30.3736 33.379 30.1954 32.7484 30.1004 32.1229C29.8408 30.4133 30.208 28.8814 31.1362 27.7572Z" fill="white"/>
<path d="M29.8634 25.2409L30.4998 25.8773L35.4829 20.8942C34.158 19.7153 32.4127 18.9988 30.4998 18.9988C30.457 18.9988 30.4144 18.9997 30.3718 19.0004C30.626 19.6192 30.8042 20.2497 30.8993 20.8753C31.1588 22.5848 30.7916 24.1167 29.8634 25.2409Z" fill="white"/>
<path d="M30.9691 31.9903C31.067 32.6347 31.265 33.2872 31.5533 33.9248C33.0505 33.7142 34.4056 33.0618 35.4827 32.1034L31.7614 28.3821C31.0344 29.3067 30.7534 30.5696 30.9691 31.9903Z" fill="white"/>
<path d="M31.758 27.1344C32.8821 26.2062 34.4141 25.839 36.1236 26.0986C36.7492 26.1936 37.3797 26.3719 37.9985 26.6261C37.9992 26.5835 38.0001 26.5409 38.0001 26.498C38.0001 24.5851 37.2835 22.8398 36.1047 21.5149L31.1216 26.4981L31.758 27.1344Z" fill="white"/>
</g>
<defs>
<filter id="filter0_d_704_6645" x="0" y="0" width="82" height="86.9658" filterUnits="userSpaceOnUse" color-interpolation-filters="sRGB">
<feFlood flood-opacity="0" result="BackgroundImageFix"/>
<feColorMatrix in="SourceAlpha" type="matrix" values="0 0 0 0 0 0 0 0 0 0 0 0 0 0 0 0 0 0 127 0" result="hardAlpha"/>
<feOffset dx="10" dy="15"/>
<feGaussianBlur stdDeviation="10"/>
<feColorMatrix type="matrix" values="0 0 0 0 0.827451 0 0 0 0 0.819608 0 0 0 0 0.847059 0 0 0 0.45 0"/>
<feBlend mode="normal" in2="BackgroundImageFix" result="effect1_dropShadow_704_6645"/>
<feBlend mode="normal" in="SourceGraphic" in2="effect1_dropShadow_704_6645" result="shape"/>
</filter>
<clipPath id="clip0_704_6645">
<rect width="15" height="15" fill="white" transform="translate(23 19)"/>
</clipPath>
</defs>
</svg>
