<svg width="20" height="20" viewBox="0 0 20 20" fill="none" xmlns="http://www.w3.org/2000/svg">
<g clip-path="url(#clip0_341_1832)">
<path d="M3.54167 0H16.4583C18.4167 0 20 1.58333 20 3.54167V15.9583C20 17.9167 18.4167 19.5 16.4583 19.5H3.54167C1.58333 19.5 0 17.9167 0 15.9583V3.54167C0 1.58333 1.58333 0 3.54167 0Z" fill="#470137"/>
<path d="M10.5166 5.125L8.01664 9.25L10.6833 13.625C10.7 13.6583 10.7083 13.6917 10.7 13.725C10.6916 13.7583 10.6583 13.7333 10.6083 13.7417H8.69998C8.56665 13.7417 8.47498 13.7333 8.41665 13.65C8.24165 13.3 8.05831 12.9583 7.88331 12.6083C7.70831 12.2667 7.51665 11.9167 7.31665 11.5583C7.11665 11.2 6.91665 10.8417 6.71665 10.475H6.69998C6.52498 10.8333 6.33331 11.1917 6.14164 11.55C5.94998 11.9083 5.75831 12.2667 5.57498 12.6167C5.38331 12.9667 5.19165 13.325 4.99998 13.6667C4.96665 13.75 4.89998 13.7583 4.80831 13.7583H2.97498C2.94165 13.7583 2.91665 13.775 2.91665 13.7333C2.90831 13.7 2.91665 13.6667 2.93331 13.6417L5.52498 9.39167L2.99998 5.11667C2.97498 5.08333 2.96664 5.05 2.98331 5.03333C2.99998 5.00833 3.03331 5 3.06664 5H4.95831C4.99998 5 5.04165 5.00833 5.07498 5.01667C5.10831 5.03333 5.13331 5.05833 5.15831 5.09167C5.31665 5.45 5.49998 5.80833 5.69165 6.16667C5.89165 6.525 6.08331 6.875 6.29165 7.225C6.49165 7.575 6.67498 7.925 6.84998 8.28333H6.86665C7.04165 7.91667 7.22498 7.55833 7.40831 7.20833C7.59165 6.85833 7.78331 6.50833 7.97498 6.15833C8.16665 5.80833 8.34998 5.45 8.53331 5.10833C8.54165 5.075 8.55831 5.04167 8.58331 5.025C8.61665 5.00833 8.64998 5 8.69165 5.00833H10.45C10.4916 5 10.5333 5.025 10.5416 5.06667C10.55 5.075 10.5333 5.10833 10.5166 5.125Z" fill="#FF61F6"/>
<path d="M14.3667 13.9166C13.75 13.925 13.1334 13.8 12.575 13.5416C12.05 13.3 11.6167 12.9 11.3167 12.4083C11.0084 11.9 10.8584 11.2666 10.8584 10.5083C10.85 9.89164 11.0084 9.28331 11.3167 8.74998C11.6334 8.20831 12.0917 7.75831 12.6417 7.45831C13.225 7.13331 13.925 6.97498 14.75 6.97498C14.7917 6.97498 14.85 6.97498 14.925 6.98331C15 6.99164 15.0834 6.99164 15.1834 6.99998V4.36664C15.1834 4.30831 15.2084 4.27498 15.2667 4.27498H16.9584C17 4.26664 17.0334 4.29998 17.0417 4.33331C17.0417 4.34164 17.0417 4.34998 17.0417 4.34998V12.2833C17.0417 12.4333 17.05 12.6 17.0584 12.7833C17.075 12.9583 17.0834 13.125 17.0917 13.2666C17.0917 13.325 17.0667 13.375 17.0084 13.4C16.575 13.5833 16.1167 13.7166 15.65 13.8C15.225 13.875 14.8 13.9166 14.3667 13.9166ZM15.1834 12.25V8.58331C15.1084 8.56664 15.0334 8.54998 14.9584 8.54164C14.8667 8.53331 14.775 8.52498 14.6834 8.52498C14.3584 8.52498 14.0334 8.59164 13.7417 8.74164C13.4584 8.88331 13.2167 9.09164 13.0334 9.35831C12.85 9.62498 12.7584 9.98331 12.7584 10.4166C12.75 10.7083 12.8 11 12.9 11.275C12.9834 11.5 13.1084 11.7 13.275 11.8666C13.4334 12.0166 13.625 12.1333 13.8417 12.2C14.0667 12.275 14.3 12.3083 14.5334 12.3083C14.6584 12.3083 14.775 12.3 14.8834 12.2916C14.9917 12.3 15.0834 12.2833 15.1834 12.25Z" fill="#FF61F6"/>
</g>
<defs>
<clipPath id="clip0_341_1832">
<rect width="20" height="19.5" fill="white"/>
</clipPath>
</defs>
</svg>
