<svg width="20" height="21" viewBox="0 0 20 21" fill="none" xmlns="http://www.w3.org/2000/svg">
<g clip-path="url(#clip0_341_1725)">
<path d="M19.7594 9.9197L10.8966 0.990581L10.0378 0.125366L3.36615 6.84699L0.315345 9.9197C0.162959 10.074 0.0774155 10.2828 0.0774155 10.5005C0.0774155 10.7182 0.162959 10.927 0.315345 11.0814L6.41052 17.2222L10.0378 20.8757L16.7086 14.1541L16.8125 14.0503L19.7594 11.086C19.8358 11.0096 19.8964 10.9188 19.9377 10.8187C19.9791 10.7186 20.0004 10.6113 20.0004 10.5028C20.0004 10.3944 19.9791 10.2871 19.9377 10.187C19.8964 10.0869 19.8358 9.99608 19.7594 9.9197ZM10.0378 13.5686L6.99254 10.5005L10.0378 7.43244L13.0822 10.5005L10.0378 13.5686Z" fill="#2684FF"/>
<path d="M10.0374 7.4327C9.0797 6.46801 8.5398 5.16068 8.53566 3.79625C8.53153 2.43183 9.0635 1.1212 10.0154 0.150635L3.35197 6.86114L6.97836 10.5147L10.0374 7.4327Z" fill="url(#paint0_linear_341_1725)"/>
<path d="M13.0901 10.4924L10.0375 13.5689C10.9988 14.5377 11.5389 15.8515 11.5389 17.2215C11.5389 18.5914 10.9988 19.9053 10.0375 20.8741L16.7192 14.146L13.0901 10.4924Z" fill="url(#paint1_linear_341_1725)"/>
</g>
<defs>
<linearGradient id="paint0_linear_341_1725" x1="9.49219" y1="4.32849" x2="5.20793" y2="8.58" gradientUnits="userSpaceOnUse">
<stop offset="0.18" stop-color="#0052CC"/>
<stop offset="1" stop-color="#2684FF"/>
</linearGradient>
<linearGradient id="paint1_linear_341_1725" x1="776.104" y1="900.926" x2="1212.24" y2="1181.57" gradientUnits="userSpaceOnUse">
<stop offset="0.18" stop-color="#0052CC"/>
<stop offset="1" stop-color="#2684FF"/>
</linearGradient>
<clipPath id="clip0_341_1725">
<rect width="20" height="21" fill="white"/>
</clipPath>
</defs>
</svg>
