<svg width="16" height="16" viewBox="0 0 16 16" fill="none" xmlns="http://www.w3.org/2000/svg">
<path d="M0.999878 11.7495C0.999878 12.2136 1.18425 12.6588 1.51244 12.9869C1.84063 13.3151 2.28575 13.4995 2.74988 13.4995H13.2499C13.714 13.4995 14.1591 13.3151 14.4873 12.9869C14.8155 12.6588 14.9999 12.2136 14.9999 11.7495V6.93701H0.999878V11.7495ZM3.06238 9.37451C3.06238 9.12587 3.16115 8.88741 3.33696 8.7116C3.51278 8.53578 3.75124 8.43701 3.99988 8.43701H5.49988C5.74852 8.43701 5.98697 8.53578 6.16279 8.7116C6.3386 8.88741 6.43738 9.12587 6.43738 9.37451V9.99951C6.43738 10.2482 6.3386 10.4866 6.16279 10.6624C5.98697 10.8382 5.74852 10.937 5.49988 10.937H3.99988C3.75124 10.937 3.51278 10.8382 3.33696 10.6624C3.16115 10.4866 3.06238 10.2482 3.06238 9.99951V9.37451Z" fill="#F6AD55"/>
<path d="M13.2499 2.49915H2.74988C2.28575 2.49915 1.84063 2.68352 1.51244 3.01171C1.18425 3.3399 0.999878 3.78502 0.999878 4.24915V5.06164H14.9999V4.24915C14.9999 3.78502 14.8155 3.3399 14.4873 3.01171C14.1591 2.68352 13.714 2.49915 13.2499 2.49915Z" fill="#F6AD55"/>
</svg>
