<svg width="20" height="21" viewBox="0 0 20 21" fill="none" xmlns="http://www.w3.org/2000/svg">
<g clip-path="url(#clip0_341_1785)">
<path fill-rule="evenodd" clip-rule="evenodd" d="M7.33263 0C6.22705 0.000835882 5.3323 0.918634 5.33312 2.04958C5.3323 3.18053 6.22787 4.09833 7.33344 4.09916H9.33377V2.05042C9.33459 0.91947 8.43902 0.00167176 7.33263 0C7.33344 0 7.33344 0 7.33263 0V0ZM7.33263 5.46667H2.00005C0.894482 5.4675 -0.00108955 6.3853 -0.000272425 7.51625C-0.00190668 8.6472 0.893665 9.56499 1.99924 9.56667H7.33263C8.4382 9.56583 9.33377 8.64803 9.33295 7.51708C9.33377 6.3853 8.4382 5.4675 7.33263 5.46667Z" fill="#36C5F0"/>
<path fill-rule="evenodd" clip-rule="evenodd" d="M20 7.51698C20.0008 6.38603 19.1052 5.46824 17.9996 5.4674C16.8941 5.46824 15.9985 6.38603 15.9993 7.51698V9.5674H17.9996C19.1052 9.56656 20.0008 8.64877 20 7.51698ZM14.6666 7.51698V2.05031C14.6674 0.920202 13.7726 0.00240419 12.667 0.000732422C11.5615 0.0015683 10.6659 0.919366 10.6667 2.05031V7.51698C10.6651 8.64793 11.5607 9.56573 12.6662 9.5674C13.7718 9.56656 14.6674 8.64877 14.6666 7.51698Z" fill="#2EB67D"/>
<path fill-rule="evenodd" clip-rule="evenodd" d="M12.6663 20.5007C13.7719 20.4999 14.6674 19.5821 14.6666 18.4511C14.6674 17.3202 13.7719 16.4024 12.6663 16.4016H10.666V18.4511C10.6652 19.5813 11.5607 20.4991 12.6663 20.5007ZM12.6663 15.0332H17.9997C19.1053 15.0324 20.0008 14.1146 20 12.9836C20.0017 11.8527 19.1061 10.9349 18.0005 10.9332H12.6671C11.5615 10.9341 10.666 11.8519 10.6668 12.9828C10.666 14.1146 11.5607 15.0324 12.6663 15.0332Z" fill="#ECB22E"/>
<path fill-rule="evenodd" clip-rule="evenodd" d="M1.58175e-05 12.9837C-0.000801309 14.1146 0.89477 15.0324 2.00034 15.0333C3.10592 15.0324 4.00149 14.1146 4.00067 12.9837V10.9341H2.00034C0.89477 10.9349 -0.000801309 11.8527 1.58175e-05 12.9837ZM5.3334 12.9837V18.4503C5.33177 19.5813 6.22734 20.4991 7.33291 20.5008C8.43849 20.4999 9.33406 19.5821 9.33324 18.4512V12.9853C9.33487 11.8544 8.4393 10.9366 7.33373 10.9349C6.22734 10.9349 5.33259 11.8527 5.3334 12.9837C5.3334 12.9845 5.3334 12.9837 5.3334 12.9837Z" fill="#E01E5A"/>
</g>
<defs>
<clipPath id="clip0_341_1785">
<rect width="20" height="20.5" fill="white"/>
</clipPath>
</defs>
</svg>
