<svg width="36" height="36" viewBox="0 0 36 36" fill="none" xmlns="http://www.w3.org/2000/svg">
<g filter="url(#filter0_d_341_1910)">
<rect x="5.5" y="2" width="25" height="25" rx="6" fill="#4FD1C5"/>
</g>
<path d="M23.2147 11.1929C23.1866 11.1382 23.1459 11.0909 23.0961 11.0549C23.0462 11.0188 22.9885 10.9951 22.9277 10.9856C22.867 10.9761 22.8048 10.981 22.7463 11.0001C22.6878 11.0191 22.6347 11.0517 22.5912 11.0952L21.0912 12.5962C21.0175 12.6688 20.9183 12.7094 20.8149 12.7094C20.7115 12.7094 20.6123 12.6688 20.5387 12.5962L19.8902 11.9468C19.854 11.9105 19.8252 11.8674 19.8055 11.82C19.7859 11.7726 19.7758 11.7218 19.7758 11.6705C19.7758 11.6192 19.7859 11.5684 19.8055 11.521C19.8252 11.4736 19.854 11.4306 19.8902 11.3943L21.3839 9.9004C21.4287 9.85563 21.4619 9.80064 21.4807 9.74018C21.4995 9.67972 21.5033 9.61559 21.4918 9.55332C21.4804 9.49106 21.4539 9.43251 21.4148 9.38273C21.3756 9.33296 21.325 9.29344 21.2672 9.26759C20.139 8.76319 18.7308 9.02638 17.8429 9.90772C17.0885 10.6567 16.8636 11.8272 17.2264 13.1189C17.246 13.1878 17.2461 13.2607 17.2267 13.3297C17.2074 13.3986 17.1693 13.4609 17.1168 13.5095L13.0523 17.2217C12.894 17.3639 12.7663 17.5368 12.677 17.7299C12.5877 17.9231 12.5387 18.1324 12.5329 18.3451C12.5272 18.5578 12.5648 18.7695 12.6436 18.9672C12.7223 19.1649 12.8405 19.3445 12.991 19.495C13.1414 19.6455 13.3209 19.7637 13.5186 19.8426C13.7162 19.9214 13.9279 19.9592 14.1406 19.9535C14.3533 19.9479 14.5627 19.8989 14.7558 19.8097C14.949 19.7205 15.122 19.5929 15.2643 19.4346L19.0162 15.3611C19.0642 15.3092 19.1254 15.2714 19.1932 15.2518C19.261 15.2321 19.333 15.2313 19.4012 15.2495C19.769 15.3503 20.1483 15.4026 20.5296 15.405C21.3451 15.405 22.0606 15.1411 22.5768 14.6326C23.5326 13.6909 23.6783 12.0938 23.2147 11.1929ZM14.18 19.1672C14.0192 19.1848 13.857 19.152 13.7156 19.0734C13.5742 18.9948 13.4608 18.8743 13.3908 18.7284C13.3209 18.5826 13.2979 18.4186 13.3251 18.2592C13.3524 18.0997 13.4284 17.9527 13.5427 17.8383C13.6571 17.7239 13.8041 17.6478 13.9636 17.6205C14.123 17.5933 14.287 17.6162 14.4328 17.686C14.5787 17.7559 14.6993 17.8694 14.7779 18.0107C14.8566 18.152 14.8894 18.3143 14.8719 18.4751C14.8527 18.652 14.7736 18.8171 14.6478 18.9429C14.522 19.0688 14.3569 19.1479 14.18 19.1672Z" fill="white"/>
<defs>
<filter id="filter0_d_341_1910" x="-4.76837e-07" y="-2.38419e-07" width="36" height="36" filterUnits="userSpaceOnUse" color-interpolation-filters="sRGB">
<feFlood flood-opacity="0" result="BackgroundImageFix"/>
<feColorMatrix in="SourceAlpha" type="matrix" values="0 0 0 0 0 0 0 0 0 0 0 0 0 0 0 0 0 0 127 0" result="hardAlpha"/>
<feOffset dy="3.5"/>
<feGaussianBlur stdDeviation="2.75"/>
<feColorMatrix type="matrix" values="0 0 0 0 0 0 0 0 0 0 0 0 0 0 0 0 0 0 0.02 0"/>
<feBlend mode="normal" in2="BackgroundImageFix" result="effect1_dropShadow_341_1910"/>
<feBlend mode="normal" in="SourceGraphic" in2="effect1_dropShadow_341_1910" result="shape"/>
</filter>
</defs>
</svg>
